<svg width="798" height="327" viewBox="0 0 798 327" fill="none" xmlns="http://www.w3.org/2000/svg">
<g clip-path="url(#clip0_0_1)">
<path d="M7 305.938H167" stroke="#6A4C2A" stroke-width="10" stroke-dasharray="12 12"/>
</g>
<path d="M196.464 311.521C196.101 312.417 195.547 313.068 194.8 313.473C194.117 313.857 193.723 313.847 193.616 313.441L193.52 300.321C193.52 300.129 193.552 300.012 193.616 299.969C193.68 299.927 193.776 299.937 193.904 300.001L196.304 301.409L204.016 301.249V298.593L203.856 293.025L207.664 294.017C207.771 294.039 207.824 294.103 207.824 294.209C207.824 294.295 207.781 294.38 207.696 294.465C207.397 294.764 207.205 295.18 207.12 295.713V301.185L214.352 301.057L215.824 299.137L218.832 300.993C218.96 301.079 218.981 301.196 218.896 301.345L218.096 302.433L218.192 309.633L218.48 310.465C218.544 310.636 218.555 310.753 218.512 310.817C218.448 310.903 218.309 310.935 218.096 310.913C216.475 310.764 212.827 310.711 207.152 310.753V316.609L207.184 320.29C207.184 320.844 206.811 321.602 206.064 322.562C205.36 323.479 204.816 323.991 204.432 324.098C204.133 324.119 203.92 323.938 203.792 323.554L204.016 317.249V310.785C201.499 310.849 198.981 310.903 196.464 310.945V311.521ZM196.336 302.209L196.432 310.113L204.016 309.921V302.049L196.336 302.209ZM214.512 301.825L207.12 301.985L207.152 309.857L214.64 309.665L214.512 301.825ZM247.76 293.729L250.64 295.137C250.853 295.244 250.864 295.425 250.672 295.681L249.872 296.769L250.096 310.913L250.32 318.241C250.363 319.116 250.16 319.991 249.712 320.866C249.243 321.826 248.517 322.7 247.536 323.49C247.195 323.66 246.96 323.703 246.832 323.618C246.683 323.532 246.608 323.298 246.608 322.914C246.48 321.676 246.277 320.62 246 319.745L228.912 319.841C228.827 321.058 228.24 322.231 227.152 323.362C226.875 323.596 226.661 323.703 226.512 323.682C226.363 323.66 226.277 323.511 226.256 323.234L226.48 299.265C226.501 297.281 226.437 295.479 226.288 293.857C226.267 293.772 226.277 293.719 226.32 293.697C226.341 293.676 226.395 293.687 226.48 293.729L229.296 295.681L246.608 295.553L247.76 293.729ZM229.136 296.481L228.912 319.009L246.896 318.882L246.736 296.321L229.136 296.481ZM234.48 300.449C232.709 300.535 231.557 300.641 231.024 300.769L230.16 299.809L242.064 299.681L243.6 298.209L245.456 300.065C245.52 300.129 245.563 300.183 245.584 300.225C245.584 300.332 245.52 300.396 245.392 300.417L237.328 300.449L239.056 300.897C239.269 300.961 239.312 301.143 239.184 301.441L238.96 301.953L238.896 306.785L241.648 306.721L243.088 305.313L244.848 307.073C244.891 307.116 244.923 307.159 244.944 307.201C244.987 307.308 244.933 307.372 244.784 307.393L238.896 307.489L238.864 314.849L242.704 314.817L244.144 313.345L246.096 315.073C246.16 315.137 246.203 315.191 246.224 315.234C246.224 315.34 246.16 315.404 246.032 315.425L234.48 315.617C232.816 315.66 231.675 315.756 231.056 315.905L230.16 314.945L236.24 314.881L236.176 307.553H235.44C233.84 307.617 232.699 307.724 232.016 307.873L231.12 306.913L236.176 306.817L236.144 303.521L236.048 300.449H234.48ZM240.048 308.673C240.944 309.036 241.712 309.441 242.352 309.889C243.184 310.465 243.6 310.988 243.6 311.457C243.6 312.311 243.195 312.929 242.384 313.313C241.723 313.42 241.339 313.228 241.232 312.737C241.168 310.967 240.72 309.697 239.888 308.929C239.803 308.844 239.781 308.769 239.824 308.705C239.845 308.663 239.92 308.652 240.048 308.673ZM271.792 293.537L274.928 294.497C275.12 294.561 275.141 294.711 274.992 294.945C274.757 295.18 274.64 295.649 274.64 296.353L274.576 298.433L280.08 298.337L281.872 296.481L283.92 298.465C284.005 298.551 284.027 298.636 283.984 298.721C283.941 298.807 283.867 298.86 283.76 298.881L272.272 299.137L273.84 300.545C273.947 300.631 273.979 300.716 273.936 300.801C273.893 300.887 273.776 300.983 273.584 301.089C271.984 302.369 270.16 303.671 268.112 304.993L278.928 304.449C278.651 303.681 278.203 302.892 277.584 302.081C277.52 302.017 277.509 301.953 277.552 301.889C277.595 301.825 277.659 301.804 277.744 301.825C278.661 302.252 279.536 302.753 280.368 303.329C281.285 303.969 281.808 304.492 281.936 304.897C282.043 305.217 282.053 305.601 281.968 306.049C281.797 306.753 281.509 307.244 281.104 307.521C280.699 307.863 280.347 308.001 280.048 307.937C279.728 307.873 279.525 307.628 279.44 307.201C279.333 306.199 279.216 305.452 279.088 304.961C273.029 306.007 268.699 306.849 266.096 307.489C265.819 307.596 265.669 307.564 265.648 307.393L265.104 305.249C265.04 305.036 265.147 304.908 265.424 304.865C265.957 304.716 266.469 304.46 266.96 304.097C268.731 302.647 270.128 301.004 271.152 299.169L268.24 299.233C266.96 299.255 265.829 299.383 264.848 299.617L263.888 298.593L271.696 298.465L271.568 293.761C271.568 293.655 271.579 293.591 271.6 293.569C271.643 293.527 271.707 293.516 271.792 293.537ZM278.512 308.929C278.619 309.036 278.64 309.132 278.576 309.217L278.224 309.953L277.904 318.337C277.861 318.764 277.915 319.063 278.064 319.233C278.213 319.404 278.491 319.511 278.896 319.553C280.24 319.66 281.296 319.575 282.064 319.297C282.405 319.169 282.683 318.924 282.896 318.561C283.131 318.156 283.365 317.495 283.6 316.577C283.643 316.428 283.728 316.364 283.856 316.385C283.984 316.407 284.048 316.492 284.048 316.641C283.941 317.836 284.144 318.753 284.656 319.393C285.04 319.863 285.179 320.332 285.072 320.802C284.965 321.25 284.624 321.58 284.048 321.794C282.512 322.327 280.731 322.487 278.704 322.274C277.829 322.167 277.136 321.772 276.624 321.09C276.112 320.407 275.856 319.553 275.856 318.529L275.984 310.209L275.92 308.001L278.512 308.929ZM270.8 308.001L273.904 309.089C274.032 309.153 274.043 309.249 273.936 309.377L273.232 310.273L273.104 319.841C273.019 320.78 272.507 321.772 271.568 322.818C271.376 323.01 271.195 323.106 271.024 323.106C270.853 323.106 270.768 322.999 270.768 322.786L270.864 311.49L270.8 308.001ZM265.808 308.033L268.784 308.865C268.933 308.929 268.955 309.047 268.848 309.217L268.4 310.113C268.272 313.932 267.483 316.823 266.032 318.785C264.56 320.77 262.203 322.604 258.96 324.29C258.811 324.375 258.704 324.364 258.64 324.258C258.597 324.172 258.64 324.076 258.768 323.97C261.456 322.412 263.323 320.546 264.368 318.369C265.541 315.916 266.021 312.471 265.808 308.033ZM263.888 302.561L260.624 314.209C260.432 314.785 260.336 315.457 260.336 316.225C260.293 317.121 260.379 317.943 260.592 318.689C260.848 319.287 260.784 319.756 260.4 320.098C259.824 320.652 259.099 320.962 258.224 321.026C257.797 321.026 257.637 320.738 257.744 320.162C258 318.625 258.128 317.623 258.128 317.153C258.107 316.428 257.723 315.884 256.976 315.521C256.848 315.457 256.805 315.372 256.848 315.265C256.891 315.159 256.976 315.116 257.104 315.137C257.744 315.351 258.213 315.137 258.512 314.497L263.568 302.497C263.611 302.369 263.685 302.316 263.792 302.337C263.877 302.359 263.909 302.433 263.888 302.561ZM258 296.289C259.195 296.46 260.229 296.748 261.104 297.153C262.043 297.601 262.555 298.103 262.64 298.657C262.725 299.127 262.64 299.596 262.384 300.065C262.171 300.471 261.893 300.791 261.552 301.025C261.253 301.196 260.965 301.217 260.688 301.089C260.411 300.983 260.24 300.812 260.176 300.577C259.536 298.764 258.747 297.441 257.808 296.609C257.744 296.545 257.723 296.481 257.744 296.417C257.765 296.311 257.851 296.268 258 296.289ZM256.08 302.369C258.555 303.457 259.76 304.588 259.696 305.761C259.675 306.081 259.515 306.433 259.216 306.817C258.896 307.201 258.555 307.436 258.192 307.521C257.403 307.564 256.987 307.276 256.944 306.657C256.837 305.079 256.432 303.735 255.728 302.625C255.685 302.54 255.696 302.465 255.76 302.401C255.824 302.316 255.931 302.305 256.08 302.369ZM303.888 299.905C302.245 299.969 301.04 300.076 300.272 300.225L299.344 299.297L304.656 299.233L305.136 296.897L305.776 293.217L308.88 294.401C309.008 294.444 309.072 294.529 309.072 294.657C309.072 294.764 308.997 294.871 308.848 294.977C308.443 295.34 308.165 295.948 308.016 296.801L307.472 299.201L311.152 299.137L312.88 297.473L314.832 299.297C314.917 299.404 314.939 299.5 314.896 299.585C314.853 299.649 314.768 299.692 314.64 299.713L307.312 299.841L306.32 304.257L313.2 304.065L314.992 302.177L317.264 304.225C317.349 304.311 317.381 304.385 317.36 304.449C317.339 304.492 317.285 304.524 317.2 304.545L306.16 304.929L305.744 306.721L305.232 308.737L310.768 308.513L312.048 307.169L314.64 309.217C314.789 309.367 314.768 309.505 314.576 309.633L313.552 310.561C311.973 312.545 309.776 314.721 306.96 317.089C308.859 318.092 310.171 318.956 310.896 319.681C311.152 319.959 311.205 320.492 311.056 321.282C310.907 322.05 310.651 322.679 310.288 323.17C309.989 323.575 309.733 323.735 309.52 323.65C309.307 323.586 309.051 323.319 308.752 322.85C306.789 319.884 304.347 317.239 301.424 314.913C301.36 314.871 301.349 314.807 301.392 314.721C301.435 314.636 301.509 314.593 301.616 314.593C303.515 315.404 305.083 316.119 306.32 316.737C308.133 314.007 309.595 311.457 310.704 309.089L304.944 309.313C304.389 310.039 303.621 310.572 302.64 310.913C302.448 310.977 302.288 310.988 302.16 310.945C302.053 310.903 302.011 310.817 302.032 310.689L303.312 305.697L303.44 305.025L301.808 305.089C300.165 305.153 299.003 305.271 298.32 305.441L297.328 304.481L303.6 304.321L304.496 299.905H303.888ZM286.576 310.561C286.427 310.625 286.32 310.615 286.256 310.53C286.171 310.444 286.181 310.337 286.288 310.209C289.189 307.585 291.504 304.929 293.232 302.241C294.597 300.129 296.101 297.121 297.744 293.217L300.272 294.817C300.443 294.945 300.421 295.159 300.208 295.457C298.779 297.953 297.36 300.076 295.952 301.825L295.824 319.681C295.632 320.983 295.045 322.21 294.064 323.362C293.829 323.532 293.616 323.618 293.424 323.618C293.232 323.618 293.125 323.5 293.104 323.266L293.36 314.721L293.584 304.417C291.813 306.209 289.477 308.257 286.576 310.561Z" fill="#553624"/>
<g clip-path="url(#clip1_0_1)">
<path d="M477 305.938H637" stroke="#6A4C2A" stroke-width="10"/>
</g>
<path d="M684.968 292.929L687.464 294.945C687.592 295.073 687.549 295.233 687.336 295.425L686.6 296.065C686.259 296.407 685.747 296.897 685.064 297.537L693.832 297.377L695.752 295.361L698.088 297.537C698.152 297.601 698.184 297.665 698.184 297.729C698.163 297.815 698.099 297.868 697.992 297.889L684.392 298.177C683.731 298.753 682.877 299.489 681.832 300.385L684.072 301.569L692.328 301.409L693.64 300.289L696.104 302.209C696.232 302.316 696.221 302.455 696.072 302.625L695.208 303.49L695.048 309.057L696.04 309.025L697.64 307.297L699.816 309.185C699.901 309.271 699.944 309.356 699.944 309.441C699.944 309.505 699.891 309.548 699.784 309.569L695.048 309.697L694.824 317.441L696.008 317.409L697.512 315.905L699.528 317.633C699.592 317.697 699.624 317.761 699.624 317.826C699.603 317.911 699.539 317.964 699.432 317.985L694.824 318.081C694.781 320.748 693.555 322.743 691.144 324.066C691.016 324.108 690.909 324.108 690.824 324.066C690.739 324.023 690.707 323.948 690.728 323.842C690.621 322.882 690.248 322.231 689.608 321.89C689.501 321.847 689.459 321.772 689.48 321.666C689.501 321.538 689.576 321.484 689.704 321.506C690.472 321.463 690.995 321.303 691.272 321.026C691.528 320.77 691.688 320.258 691.752 319.489L691.784 318.145L682.568 318.337C682.333 318.828 681.683 319.447 680.616 320.194C680.467 320.3 680.339 320.364 680.232 320.386C680.083 320.407 680.008 320.332 680.008 320.162L680.424 315.714L680.84 310.081C679.581 310.145 678.621 310.252 677.96 310.401L677.064 309.441L680.904 309.377L681.352 303.617L681.448 300.705C680.403 301.559 679.357 302.401 678.312 303.233C678.184 303.297 678.088 303.297 678.024 303.233C677.96 303.169 677.971 303.063 678.056 302.913C681.235 299.5 683.4 296.215 684.552 293.057C684.637 292.865 684.776 292.823 684.968 292.929ZM683.208 310.017L682.696 317.633L691.784 317.473L692.008 309.793L683.208 310.017ZM683.752 302.337L683.272 309.313L692.008 309.121L692.2 302.113L683.752 302.337ZM677.448 302.721L674.76 317.025C674.632 317.815 674.579 318.487 674.6 319.041C674.707 319.745 674.877 320.311 675.112 320.738C675.347 321.292 675.304 321.762 674.984 322.146C674.579 322.636 673.896 322.967 672.936 323.138C672.723 323.18 672.552 323.138 672.424 323.01C672.275 322.86 672.211 322.626 672.232 322.306C672.424 320.492 672.509 319.34 672.488 318.849C672.467 317.996 672.083 317.42 671.336 317.121C671.251 317.057 671.219 316.983 671.24 316.897C671.261 316.812 671.315 316.769 671.4 316.769C672.104 316.897 672.573 316.631 672.808 315.969L677.128 302.657C677.149 302.529 677.213 302.476 677.32 302.497C677.427 302.519 677.469 302.593 677.448 302.721ZM674.984 294.433C676.072 294.839 676.968 295.34 677.672 295.937C678.504 296.62 678.899 297.281 678.856 297.921C678.771 298.945 678.227 299.617 677.224 299.938C676.883 300.023 676.584 299.969 676.328 299.777C676.093 299.607 675.965 299.404 675.944 299.169C675.752 297.249 675.315 295.767 674.632 294.721C674.589 294.636 674.6 294.561 674.664 294.497C674.728 294.412 674.835 294.391 674.984 294.433ZM671.176 302.561C673.587 303.585 674.792 304.716 674.792 305.953C674.664 306.849 674.163 307.436 673.288 307.713C672.499 307.756 672.083 307.468 672.04 306.849C671.933 305.271 671.528 303.927 670.824 302.817C670.781 302.732 670.792 302.657 670.856 302.593C670.92 302.508 671.027 302.497 671.176 302.561ZM685.992 311.201C688.403 312.353 689.608 313.345 689.608 314.177C689.629 314.519 689.437 314.924 689.032 315.393C688.648 315.82 688.296 316.076 687.976 316.161C687.699 316.204 687.485 316.172 687.336 316.065C687.208 315.98 687.112 315.809 687.048 315.553C686.728 313.889 686.291 312.513 685.736 311.425C685.693 311.34 685.693 311.265 685.736 311.201C685.8 311.137 685.885 311.137 685.992 311.201ZM686.152 303.329C688.349 304.396 689.437 305.335 689.416 306.145C689.416 306.487 689.224 306.849 688.84 307.233C688.477 307.575 688.136 307.767 687.816 307.809C687.368 307.895 687.091 307.703 686.984 307.233C686.813 305.484 686.461 304.257 685.928 303.553C685.885 303.468 685.885 303.393 685.928 303.329C685.971 303.265 686.045 303.265 686.152 303.329ZM709.832 306.945C710.877 307.393 711.869 307.852 712.808 308.321C713.96 305.889 714.984 303.095 715.88 299.938L711.496 300.161C708.872 304.129 706.056 307.607 703.048 310.593C702.92 310.679 702.813 310.689 702.728 310.625C702.643 310.561 702.621 310.433 702.664 310.241C706.589 305.399 709.235 299.852 710.6 293.601C710.6 293.452 710.621 293.356 710.664 293.313C710.728 293.271 710.813 293.271 710.92 293.313L714.024 295.297C714.131 295.425 714.141 295.585 714.056 295.777C713.416 297.036 712.712 298.241 711.944 299.393L715.752 299.233L717.352 297.697L720.232 299.777C720.424 299.948 720.413 300.119 720.2 300.289L719.144 301.441C718.269 304.321 717.011 307.073 715.368 309.697C716.84 310.572 717.693 311.265 717.928 311.777C718.099 312.225 718.024 312.801 717.704 313.505C717.363 314.188 717 314.657 716.616 314.913C716.125 315.297 715.645 315.084 715.176 314.273C714.6 313.377 714.109 312.652 713.704 312.097C710.739 316.151 706.813 319.873 701.928 323.266C701.8 323.33 701.693 323.308 701.608 323.202C701.523 323.095 701.544 322.988 701.672 322.882C706.109 319.02 709.555 314.711 712.008 309.953C711.389 309.228 710.568 308.353 709.544 307.329C709.459 307.223 709.448 307.116 709.512 307.009C709.576 306.903 709.683 306.881 709.832 306.945ZM724.2 294.785L724.04 296.257L724.008 316.321L724.072 320.002C724.008 320.791 723.677 321.602 723.08 322.434C722.483 323.287 722.035 323.746 721.736 323.81C721.48 323.81 721.341 323.586 721.32 323.138L721.384 317.857L721.544 297.121C721.459 295.287 721.352 293.953 721.224 293.121L724.072 294.401C724.157 294.465 724.2 294.593 724.2 294.785ZM725.064 302.625C727.027 303.543 728.456 304.289 729.352 304.865C730.568 305.655 731.272 306.369 731.464 307.009C731.635 308.14 731.155 309.196 730.024 310.177C729.704 310.455 729.427 310.529 729.192 310.401C728.936 310.273 728.755 309.975 728.648 309.505C728.072 307.756 727.517 306.433 726.984 305.537C726.493 304.705 725.789 303.831 724.872 302.913C724.829 302.871 724.829 302.807 724.872 302.721C724.915 302.636 724.979 302.604 725.064 302.625ZM750.792 293.537L753.928 294.497C754.12 294.561 754.141 294.711 753.992 294.945C753.757 295.18 753.64 295.649 753.64 296.353L753.576 298.433L759.08 298.337L760.872 296.481L762.92 298.465C763.005 298.551 763.027 298.636 762.984 298.721C762.941 298.807 762.867 298.86 762.76 298.881L751.272 299.137L752.84 300.545C752.947 300.631 752.979 300.716 752.936 300.801C752.893 300.887 752.776 300.983 752.584 301.089C750.984 302.369 749.16 303.671 747.112 304.993L757.928 304.449C757.651 303.681 757.203 302.892 756.584 302.081C756.52 302.017 756.509 301.953 756.552 301.889C756.595 301.825 756.659 301.804 756.744 301.825C757.661 302.252 758.536 302.753 759.368 303.329C760.285 303.969 760.808 304.492 760.936 304.897C761.043 305.217 761.053 305.601 760.968 306.049C760.797 306.753 760.509 307.244 760.104 307.521C759.699 307.863 759.347 308.001 759.048 307.937C758.728 307.873 758.525 307.628 758.44 307.201C758.333 306.199 758.216 305.452 758.088 304.961C752.029 306.007 747.699 306.849 745.096 307.489C744.819 307.596 744.669 307.564 744.648 307.393L744.104 305.249C744.04 305.036 744.147 304.908 744.424 304.865C744.957 304.716 745.469 304.46 745.96 304.097C747.731 302.647 749.128 301.004 750.152 299.169L747.24 299.233C745.96 299.255 744.829 299.383 743.848 299.617L742.888 298.593L750.696 298.465L750.568 293.761C750.568 293.655 750.579 293.591 750.6 293.569C750.643 293.527 750.707 293.516 750.792 293.537ZM757.512 308.929C757.619 309.036 757.64 309.132 757.576 309.217L757.224 309.953L756.904 318.337C756.861 318.764 756.915 319.063 757.064 319.233C757.213 319.404 757.491 319.511 757.896 319.553C759.24 319.66 760.296 319.575 761.064 319.297C761.405 319.169 761.683 318.924 761.896 318.561C762.131 318.156 762.365 317.495 762.6 316.577C762.643 316.428 762.728 316.364 762.856 316.385C762.984 316.407 763.048 316.492 763.048 316.641C762.941 317.836 763.144 318.753 763.656 319.393C764.04 319.863 764.179 320.332 764.072 320.802C763.965 321.25 763.624 321.58 763.048 321.794C761.512 322.327 759.731 322.487 757.704 322.274C756.829 322.167 756.136 321.772 755.624 321.09C755.112 320.407 754.856 319.553 754.856 318.529L754.984 310.209L754.92 308.001L757.512 308.929ZM749.8 308.001L752.904 309.089C753.032 309.153 753.043 309.249 752.936 309.377L752.232 310.273L752.104 319.841C752.019 320.78 751.507 321.772 750.568 322.818C750.376 323.01 750.195 323.106 750.024 323.106C749.853 323.106 749.768 322.999 749.768 322.786L749.864 311.49L749.8 308.001ZM744.808 308.033L747.784 308.865C747.933 308.929 747.955 309.047 747.848 309.217L747.4 310.113C747.272 313.932 746.483 316.823 745.032 318.785C743.56 320.77 741.203 322.604 737.96 324.29C737.811 324.375 737.704 324.364 737.64 324.258C737.597 324.172 737.64 324.076 737.768 323.97C740.456 322.412 742.323 320.546 743.368 318.369C744.541 315.916 745.021 312.471 744.808 308.033ZM742.888 302.561L739.624 314.209C739.432 314.785 739.336 315.457 739.336 316.225C739.293 317.121 739.379 317.943 739.592 318.689C739.848 319.287 739.784 319.756 739.4 320.098C738.824 320.652 738.099 320.962 737.224 321.026C736.797 321.026 736.637 320.738 736.744 320.162C737 318.625 737.128 317.623 737.128 317.153C737.107 316.428 736.723 315.884 735.976 315.521C735.848 315.457 735.805 315.372 735.848 315.265C735.891 315.159 735.976 315.116 736.104 315.137C736.744 315.351 737.213 315.137 737.512 314.497L742.568 302.497C742.611 302.369 742.685 302.316 742.792 302.337C742.877 302.359 742.909 302.433 742.888 302.561ZM737 296.289C738.195 296.46 739.229 296.748 740.104 297.153C741.043 297.601 741.555 298.103 741.64 298.657C741.725 299.127 741.64 299.596 741.384 300.065C741.171 300.471 740.893 300.791 740.552 301.025C740.253 301.196 739.965 301.217 739.688 301.089C739.411 300.983 739.24 300.812 739.176 300.577C738.536 298.764 737.747 297.441 736.808 296.609C736.744 296.545 736.723 296.481 736.744 296.417C736.765 296.311 736.851 296.268 737 296.289ZM735.08 302.369C737.555 303.457 738.76 304.588 738.696 305.761C738.675 306.081 738.515 306.433 738.216 306.817C737.896 307.201 737.555 307.436 737.192 307.521C736.403 307.564 735.987 307.276 735.944 306.657C735.837 305.079 735.432 303.735 734.728 302.625C734.685 302.54 734.696 302.465 734.76 302.401C734.824 302.316 734.931 302.305 735.08 302.369ZM782.888 299.905C781.245 299.969 780.04 300.076 779.272 300.225L778.344 299.297L783.656 299.233L784.136 296.897L784.776 293.217L787.88 294.401C788.008 294.444 788.072 294.529 788.072 294.657C788.072 294.764 787.997 294.871 787.848 294.977C787.443 295.34 787.165 295.948 787.016 296.801L786.472 299.201L790.152 299.137L791.88 297.473L793.832 299.297C793.917 299.404 793.939 299.5 793.896 299.585C793.853 299.649 793.768 299.692 793.64 299.713L786.312 299.841L785.32 304.257L792.2 304.065L793.992 302.177L796.264 304.225C796.349 304.311 796.381 304.385 796.36 304.449C796.339 304.492 796.285 304.524 796.2 304.545L785.16 304.929L784.744 306.721L784.232 308.737L789.768 308.513L791.048 307.169L793.64 309.217C793.789 309.367 793.768 309.505 793.576 309.633L792.552 310.561C790.973 312.545 788.776 314.721 785.96 317.089C787.859 318.092 789.171 318.956 789.896 319.681C790.152 319.959 790.205 320.492 790.056 321.282C789.907 322.05 789.651 322.679 789.288 323.17C788.989 323.575 788.733 323.735 788.52 323.65C788.307 323.586 788.051 323.319 787.752 322.85C785.789 319.884 783.347 317.239 780.424 314.913C780.36 314.871 780.349 314.807 780.392 314.721C780.435 314.636 780.509 314.593 780.616 314.593C782.515 315.404 784.083 316.119 785.32 316.737C787.133 314.007 788.595 311.457 789.704 309.089L783.944 309.313C783.389 310.039 782.621 310.572 781.64 310.913C781.448 310.977 781.288 310.988 781.16 310.945C781.053 310.903 781.011 310.817 781.032 310.689L782.312 305.697L782.44 305.025L780.808 305.089C779.165 305.153 778.003 305.271 777.32 305.441L776.328 304.481L782.6 304.321L783.496 299.905H782.888ZM765.576 310.561C765.427 310.625 765.32 310.615 765.256 310.53C765.171 310.444 765.181 310.337 765.288 310.209C768.189 307.585 770.504 304.929 772.232 302.241C773.597 300.129 775.101 297.121 776.744 293.217L779.272 294.817C779.443 294.945 779.421 295.159 779.208 295.457C777.779 297.953 776.36 300.076 774.952 301.825L774.824 319.681C774.632 320.983 774.045 322.21 773.064 323.362C772.829 323.532 772.616 323.618 772.424 323.618C772.232 323.618 772.125 323.5 772.104 323.266L772.36 314.721L772.584 304.417C770.813 306.209 768.477 308.257 765.576 310.561Z" fill="#553624"/>
<path d="M410.5 155L509.499 74.7011L599 74.7023" stroke="#AD9278"/>
<path d="M478.072 216.434L524 235.5L598.5 235" stroke="#AD9278"/>
<path d="M517 155.691L558 155.693L598.5 155.691" stroke="#AD9278"/>
<path d="M427 254.938C476.706 254.938 517 214.643 517 164.938C517 115.232 476.706 74.9375 427 74.9375C377.294 74.9375 337 115.232 337 164.938C337 214.643 377.294 254.938 427 254.938Z" stroke="#6A4C2A" stroke-width="5" stroke-miterlimit="10" stroke-dasharray="6 6 18 6"/>
<path d="M426.5 232C463.779 232 494 201.779 494 164.5C494 127.221 463.779 97 426.5 97C389.221 97 359 127.221 359 164.5C359 201.779 389.221 232 426.5 232Z" stroke="#6A4C2A" stroke-width="4" stroke-miterlimit="10" stroke-dasharray="12 12"/>
<path d="M427 210C451.853 210 472 189.853 472 165C472 140.147 451.853 120 427 120C402.147 120 382 140.147 382 165C382 189.853 402.147 210 427 210Z" stroke="#AD9278" stroke-width="3" stroke-miterlimit="10" stroke-dasharray="10 10"/>
<path d="M409 170C417.284 170 424 163.284 424 155C424 146.716 417.284 140 409 140C400.716 140 394 146.716 394 155C394 163.284 400.716 170 409 170Z" fill="#6A4C2A"/>
<path d="M517 173C525.284 173 532 166.284 532 158C532 149.716 525.284 143 517 143C508.716 143 502 149.716 502 158C502 166.284 508.716 173 517 173Z" fill="#6A4C2A"/>
<path d="M474 226C482.284 226 489 219.284 489 211C489 202.716 482.284 196 474 196C465.716 196 459 202.716 459 211C459 219.284 465.716 226 474 226Z" fill="#6A4C2A"/>
<path d="M25.76 72.7295L28.64 74.1375C28.8533 74.2442 28.864 74.4255 28.672 74.6815L27.872 75.7695L28.096 89.9135L28.32 97.2415C28.3627 98.1162 28.16 98.9908 27.712 99.8655C27.2427 100.826 26.5173 101.7 25.536 102.49C25.1947 102.66 24.96 102.703 24.832 102.618C24.6827 102.532 24.608 102.298 24.608 101.914C24.48 100.676 24.2773 99.6202 24 98.7455L6.912 98.8415C6.82667 100.058 6.24 101.231 5.152 102.362C4.87467 102.596 4.66133 102.703 4.512 102.682C4.36267 102.66 4.27733 102.511 4.256 102.234L4.48 78.2655C4.50133 76.2815 4.43733 74.4788 4.288 72.8575C4.26667 72.7722 4.27733 72.7188 4.32 72.6975C4.34133 72.6762 4.39467 72.6868 4.48 72.7295L7.296 74.6815L24.608 74.5535L25.76 72.7295ZM7.136 75.4815L6.912 98.0095L24.896 97.8815L24.736 75.3215L7.136 75.4815ZM12.48 79.4495C10.7093 79.5348 9.55733 79.6415 9.024 79.7695L8.16 78.8095L20.064 78.6815L21.6 77.2095L23.456 79.0655C23.52 79.1295 23.5627 79.1828 23.584 79.2255C23.584 79.3322 23.52 79.3962 23.392 79.4175L15.328 79.4495L17.056 79.8975C17.2693 79.9615 17.312 80.1428 17.184 80.4415L16.96 80.9535L16.896 85.7855L19.648 85.7215L21.088 84.3135L22.848 86.0735C22.8907 86.1162 22.9227 86.1588 22.944 86.2015C22.9867 86.3082 22.9333 86.3722 22.784 86.3935L16.896 86.4895L16.864 93.8495L20.704 93.8175L22.144 92.3455L24.096 94.0735C24.16 94.1375 24.2027 94.1908 24.224 94.2335C24.224 94.3402 24.16 94.4042 24.032 94.4255L12.48 94.6175C10.816 94.6602 9.67467 94.7562 9.056 94.9055L8.16 93.9455L14.24 93.8815L14.176 86.5535H13.44C11.84 86.6175 10.6987 86.7242 10.016 86.8735L9.12 85.9135L14.176 85.8175L14.144 82.5215L14.048 79.4495H12.48ZM18.048 87.6735C18.944 88.0362 19.712 88.4415 20.352 88.8895C21.184 89.4655 21.6 89.9882 21.6 90.4575C21.6 91.3108 21.1947 91.9295 20.384 92.3135C19.7227 92.4202 19.3387 92.2282 19.232 91.7375C19.168 89.9668 18.72 88.6975 17.888 87.9295C17.8027 87.8442 17.7813 87.7695 17.824 87.7055C17.8453 87.6628 17.92 87.6522 18.048 87.6735ZM44.128 82.2015C42.6987 82.2442 41.568 82.3828 40.736 82.6175L39.84 81.7535L52.096 81.2415L53.696 79.5775L55.904 81.4335C55.968 81.4975 56.0107 81.5508 56.032 81.5935C56.032 81.7002 55.968 81.7642 55.84 81.7855L47.392 82.1055L49.376 83.2895C49.4613 83.3535 49.504 83.4068 49.504 83.4495C49.504 83.5135 49.4507 83.5668 49.344 83.6095L48.736 83.8335C48.0107 84.3242 47.4133 84.7082 46.944 84.9855C48.2667 86.0948 49.2693 87.4068 49.952 88.9215C52.704 86.9802 54.8267 85.2095 56.32 83.6095L58.72 85.6895C58.8267 85.7748 58.8693 85.8495 58.848 85.9135C58.8267 85.9775 58.752 86.0308 58.624 86.0735C57.472 86.4575 55.9147 87.0335 53.952 87.8015C54.5067 89.6788 55.36 91.2042 56.512 92.3775C57.7707 93.6788 59.9147 95.1508 62.944 96.7935C63.072 96.8575 63.136 96.9428 63.136 97.0495C63.1573 97.1775 63.072 97.2628 62.88 97.3055C61.664 97.4335 60.3947 98.1695 59.072 99.5135C57.0667 97.4655 55.68 95.5882 54.912 93.8815C54.2507 92.4095 53.8027 90.4362 53.568 87.9615C52.4373 88.4095 51.296 88.8575 50.144 89.3055C51.168 91.8015 51.4347 94.7242 50.944 98.0735C50.7733 99.2042 50.2827 100.218 49.472 101.114C48.64 102.031 47.584 102.671 46.304 103.034C46.1547 103.076 46.0587 103.076 46.016 103.034C45.9733 102.991 45.9733 102.884 46.016 102.714C45.9947 102.031 45.888 101.487 45.696 101.082C45.504 100.698 45.2053 100.367 44.8 100.09C44.6293 99.9828 44.5653 99.8868 44.608 99.8015C44.6507 99.6948 44.7573 99.6628 44.928 99.7055C45.9947 99.7908 46.7307 99.7375 47.136 99.5455C47.52 99.3535 47.776 98.9375 47.904 98.2975C48.352 96.2282 48.5653 94.3935 48.544 92.7935C44.9813 95.9295 39.936 98.8842 33.408 101.658C33.3013 101.722 33.2053 101.711 33.12 101.626C33.0347 101.54 33.0453 101.455 33.152 101.37C38.5707 98.4042 43.584 94.4575 48.192 89.5295C48.1493 89.2735 48.064 88.9108 47.936 88.4415C44.544 91.1722 40.16 93.6895 34.784 95.9935C34.6773 96.0362 34.592 96.0255 34.528 95.9615C34.464 95.8762 34.4853 95.7908 34.592 95.7055C39.4987 92.8895 43.5733 89.6042 46.816 85.8495C46.7947 85.8068 46.6773 85.6255 46.464 85.3055C43.52 87.0975 39.8933 88.9215 35.584 90.7775C35.4133 90.8628 35.296 90.8522 35.232 90.7455C35.168 90.6388 35.2213 90.5428 35.392 90.4575C39.8507 87.8975 43.5307 85.1242 46.432 82.1375L44.128 82.2015ZM36.576 83.8655C36.32 84.1428 36.0853 84.1535 35.872 83.8975C35.5947 83.5775 35.3707 83.0655 35.2 82.3615C35.0507 81.6788 35.04 81.2735 35.168 81.1455C36.192 80.3988 36.896 79.6948 37.28 79.0335C37.664 78.3722 37.9413 77.3482 38.112 75.9615C38.1973 75.8122 38.304 75.7375 38.432 75.7375C38.5387 75.7375 38.6133 75.8122 38.656 75.9615L39.328 77.3055L46.4 77.0815L46.272 72.6655C46.272 72.5588 46.2827 72.4948 46.304 72.4735C46.3467 72.4308 46.4107 72.4202 46.496 72.4415L49.984 73.4655C50.176 73.5295 50.1973 73.6788 50.048 73.9135C49.7707 74.1908 49.632 74.6602 49.632 75.3215L49.664 76.9855L56.544 76.7615L58.048 75.3855L61.28 78.0415C61.408 78.1908 61.4507 78.3295 61.408 78.4575C61.3653 78.5855 61.2587 78.6708 61.088 78.7135C59.68 78.8202 58.0693 79.3642 56.256 80.3455C56.1493 80.4308 56.0533 80.4415 55.968 80.3775C55.8827 80.3135 55.872 80.2175 55.936 80.0895L56.704 77.3695L39.392 78.0415C39.392 79.2575 39.104 80.3988 38.528 81.4655C38.0587 82.3615 37.408 83.1615 36.576 83.8655Z" fill="#553624"/>
<path d="M21.5501 162.905L22.9261 161.209L26.0621 163.097C26.2328 163.204 26.2328 163.364 26.0621 163.577L25.2941 164.601L25.3261 170.073L25.3901 173.593C25.3261 175.279 24.4301 176.847 22.7021 178.298C22.4888 178.447 22.2968 178.5 22.1261 178.458C21.9768 178.436 21.8808 178.319 21.8381 178.106C21.5608 177.018 21.2301 176.122 20.8461 175.418L11.9501 175.61C11.7795 176.527 11.2248 177.455 10.2861 178.394C10.0088 178.607 9.79546 178.703 9.64613 178.682C9.49679 178.66 9.40079 178.543 9.35813 178.33L9.45413 163.225C7.34213 163.865 4.66479 164.612 1.42213 165.465C1.25146 165.487 1.15546 165.444 1.13412 165.337C1.11279 165.231 1.16613 165.135 1.29413 165.049C5.81679 163.577 9.52879 162.169 12.4301 160.825C16.4621 158.969 19.8968 156.857 22.7341 154.489L25.0061 156.665C25.0701 156.729 25.0915 156.793 25.0701 156.858C25.0488 156.921 24.9848 156.964 24.8781 156.985L24.3341 157.081C20.8355 159.108 16.3875 160.996 10.9901 162.745L11.9501 163.161L21.5501 162.905ZM12.0461 163.801L12.0141 166.809L20.0781 166.553C20.3128 166.553 20.4301 166.671 20.4301 166.905C20.4301 167.14 20.3021 167.257 20.0461 167.257L12.0141 167.481L11.9821 170.521L20.3021 170.265C20.5581 170.308 20.6755 170.436 20.6541 170.649C20.6541 170.82 20.5261 170.927 20.2701 170.969L11.9821 171.225V174.873L21.3901 174.681C21.5821 174.489 21.6781 174.159 21.6781 173.689L21.7741 163.513L12.0461 163.801ZM18.2861 150.745L18.1901 155.193C18.0195 156.345 17.2195 157.487 15.7901 158.617C15.4488 158.724 15.2461 158.639 15.1821 158.361L15.3101 154.329V152.089L15.2461 148.057L18.5101 149.465C18.6808 149.551 18.7235 149.689 18.6381 149.881L18.2861 150.745ZM10.0941 150.809L12.5261 152.665C12.6115 152.793 12.5901 152.921 12.4621 153.049C10.7981 154.607 9.19813 155.961 7.66213 157.113C6.53146 157.945 4.95279 159.001 2.92613 160.281C2.81946 160.303 2.75546 160.292 2.73413 160.249C2.71279 160.185 2.73413 160.1 2.79813 159.993C4.41946 158.628 5.78479 157.209 6.89413 155.737C7.79013 154.543 8.73946 152.964 9.74213 151.001C9.78479 150.895 9.83813 150.82 9.90213 150.777C9.96613 150.735 10.0301 150.745 10.0941 150.809ZM22.1261 151.417C23.6621 151.801 24.8461 152.121 25.6781 152.377C27.1501 152.847 28.3021 153.348 29.1341 153.881C29.4328 154.137 29.5821 154.575 29.5821 155.193C29.5821 155.855 29.4008 156.431 29.0381 156.921C28.3555 157.668 27.7261 157.615 27.1501 156.761C25.2941 154.18 23.5875 152.484 22.0301 151.673C21.9448 151.652 21.9128 151.599 21.9341 151.513C21.9555 151.428 22.0195 151.396 22.1261 151.417ZM53.7741 177.178L52.8461 177.914C50.6915 175.61 49.1448 173.412 48.2061 171.321C47.2035 169.081 46.6915 166.564 46.6701 163.769C46.6488 161.231 47.1928 158.756 48.3021 156.345C49.2835 154.191 50.8088 151.929 52.8781 149.561L53.8701 150.265C52.2701 152.527 51.1288 154.681 50.4461 156.729C49.7635 158.777 49.4328 161.103 49.4541 163.705C49.3261 168.783 50.7661 173.273 53.7741 177.178ZM70.5421 166.521C70.1795 167.417 69.6248 168.068 68.8781 168.473C68.1955 168.857 67.8008 168.847 67.6941 168.441L67.5981 155.321C67.5981 155.129 67.6301 155.012 67.6941 154.969C67.7581 154.927 67.8541 154.937 67.9821 155.001L70.3821 156.409L78.0941 156.249V153.593L77.9341 148.025L81.7421 149.017C81.8488 149.039 81.9021 149.103 81.9021 149.209C81.9021 149.295 81.8595 149.38 81.7741 149.465C81.4755 149.764 81.2835 150.18 81.1981 150.713V156.185L88.4301 156.057L89.9021 154.137L92.9101 155.993C93.0381 156.079 93.0595 156.196 92.9741 156.345L92.1741 157.433L92.2701 164.633L92.5581 165.465C92.6221 165.636 92.6328 165.753 92.5901 165.817C92.5261 165.903 92.3875 165.935 92.1741 165.913C90.5528 165.764 86.9048 165.711 81.2301 165.753V171.609L81.2621 175.29C81.2621 175.844 80.8888 176.602 80.1421 177.562C79.4381 178.479 78.8941 178.991 78.5101 179.098C78.2115 179.119 77.9981 178.938 77.8701 178.554L78.0941 172.249V165.785C75.5768 165.849 73.0595 165.903 70.5421 165.945V166.521ZM70.4141 157.209L70.5101 165.113L78.0941 164.921V157.049L70.4141 157.209ZM88.5901 156.825L81.1981 156.985L81.2301 164.857L88.7181 164.665L88.5901 156.825ZM121.838 148.729L124.718 150.137C124.931 150.244 124.942 150.425 124.75 150.681L123.95 151.769L124.174 165.913L124.398 173.241C124.441 174.116 124.238 174.991 123.79 175.866C123.321 176.826 122.595 177.7 121.614 178.49C121.273 178.66 121.038 178.703 120.91 178.618C120.761 178.532 120.686 178.298 120.686 177.914C120.558 176.676 120.355 175.62 120.078 174.745L102.99 174.841C102.905 176.058 102.318 177.231 101.23 178.362C100.953 178.596 100.739 178.703 100.59 178.682C100.441 178.66 100.355 178.511 100.334 178.234L100.558 154.265C100.579 152.281 100.515 150.479 100.366 148.857C100.345 148.772 100.355 148.719 100.398 148.697C100.419 148.676 100.473 148.687 100.558 148.729L103.374 150.681L120.686 150.553L121.838 148.729ZM103.214 151.481L102.99 174.009L120.974 173.882L120.814 151.321L103.214 151.481ZM108.558 155.449C106.787 155.535 105.635 155.641 105.102 155.769L104.238 154.809L116.142 154.681L117.678 153.209L119.534 155.065C119.598 155.129 119.641 155.183 119.662 155.225C119.662 155.332 119.598 155.396 119.47 155.417L111.406 155.449L113.134 155.897C113.347 155.961 113.39 156.143 113.262 156.441L113.038 156.953L112.974 161.785L115.726 161.721L117.166 160.313L118.926 162.073C118.969 162.116 119.001 162.159 119.022 162.201C119.065 162.308 119.011 162.372 118.862 162.393L112.974 162.489L112.942 169.849L116.782 169.817L118.222 168.345L120.174 170.073C120.238 170.137 120.281 170.191 120.302 170.234C120.302 170.34 120.238 170.404 120.11 170.425L108.558 170.617C106.894 170.66 105.753 170.756 105.134 170.905L104.238 169.945L110.318 169.881L110.254 162.553H109.518C107.918 162.617 106.777 162.724 106.094 162.873L105.198 161.913L110.254 161.817L110.222 158.521L110.126 155.449H108.558ZM114.126 163.673C115.022 164.036 115.79 164.441 116.43 164.889C117.262 165.465 117.678 165.988 117.678 166.457C117.678 167.311 117.273 167.929 116.462 168.313C115.801 168.42 115.417 168.228 115.31 167.737C115.246 165.967 114.798 164.697 113.966 163.929C113.881 163.844 113.859 163.769 113.902 163.705C113.923 163.663 113.998 163.652 114.126 163.673ZM138.094 150.265L139.054 149.561C141.145 151.951 142.681 154.212 143.662 156.345C144.75 158.713 145.283 161.188 145.262 163.769C145.241 166.564 144.729 169.081 143.726 171.321C142.787 173.412 141.241 175.61 139.086 177.914L138.19 177.178C141.177 173.273 142.606 168.783 142.478 163.705C142.499 161.124 142.169 158.799 141.486 156.729C140.825 154.681 139.694 152.527 138.094 150.265ZM162.734 177.082H161.326L167.214 149.881H168.686L162.734 177.082ZM188.642 169.433C190.306 170.5 191.618 171.396 192.578 172.121C194.093 173.273 195.01 174.233 195.33 175.002C195.458 175.535 195.277 176.122 194.786 176.762C194.338 177.338 193.826 177.764 193.25 178.042C193.037 178.127 192.866 178.138 192.738 178.074C192.589 178.01 192.482 177.818 192.418 177.498C192.141 176.516 191.821 175.567 191.458 174.649C184.909 175.93 180.141 177.082 177.154 178.106C176.834 178.298 176.631 178.255 176.546 177.978L175.682 175.29C175.618 175.076 175.671 174.959 175.842 174.938C176.781 174.895 177.463 174.703 177.89 174.361C179.767 172.356 181.41 170.084 182.818 167.545L176.29 167.737C174.946 167.823 173.815 167.983 172.898 168.217L171.938 167.193L179.682 166.969V153.337L179.522 149.145L182.082 150.425L189.25 150.073L190.306 148.665L193.026 150.169C193.111 150.233 193.165 150.287 193.186 150.329C193.186 150.393 193.143 150.479 193.058 150.585L192.194 151.897L192.226 166.617L196.098 166.49L198.05 164.505L200.226 166.617C200.311 166.703 200.333 166.788 200.29 166.873C200.247 166.959 200.173 167.012 200.066 167.033L183.81 167.513L185.89 168.985C186.039 169.135 185.997 169.284 185.762 169.433C184.269 170.372 182.093 172.111 179.234 174.649L191.138 173.977C190.498 172.591 189.602 171.14 188.45 169.625C188.386 169.54 188.386 169.476 188.45 169.433C188.514 169.391 188.578 169.391 188.642 169.433ZM182.082 151.097L182.05 155.897L187.778 155.545C188.013 155.567 188.141 155.652 188.162 155.801C188.183 155.972 188.087 156.1 187.874 156.185L182.05 156.505L182.018 160.889L188.034 160.537C188.247 160.537 188.365 160.623 188.386 160.793C188.407 160.964 188.333 161.081 188.162 161.145L182.018 161.497L181.986 166.905L189.186 166.714L189.25 150.745L182.082 151.097ZM223.618 177.178L222.69 177.914C220.535 175.61 218.989 173.412 218.05 171.321C217.047 169.081 216.535 166.564 216.514 163.769C216.493 161.231 217.037 158.756 218.146 156.345C219.127 154.191 220.653 151.929 222.722 149.561L223.714 150.265C222.114 152.527 220.973 154.681 220.29 156.729C219.607 158.777 219.277 161.103 219.298 163.705C219.17 168.783 220.61 173.273 223.618 177.178ZM257.346 150.169L260.226 151.673C260.482 151.78 260.503 151.972 260.29 152.249L259.458 153.273L259.81 171.385C259.874 173.135 258.967 175.012 257.09 177.018C256.727 177.274 256.45 177.359 256.258 177.274C256.066 177.21 255.949 176.943 255.906 176.474C255.671 175.044 255.298 173.796 254.786 172.729L243.49 172.889V173.625C243.277 175.055 242.605 176.346 241.474 177.498C241.218 177.732 241.005 177.828 240.834 177.786C240.685 177.743 240.599 177.572 240.578 177.274L240.674 168.953L240.802 155.769C240.823 154.703 240.77 152.857 240.642 150.233C240.621 150.127 240.631 150.052 240.674 150.009C240.695 149.967 240.749 149.956 240.834 149.977L243.746 151.705V152.153L255.97 152.025L257.346 150.169ZM243.586 152.953L243.522 161.209L254.466 161.049C254.765 161.135 254.914 161.263 254.914 161.433C254.914 161.604 254.797 161.732 254.562 161.817L243.522 162.009L243.49 172.089L255.714 171.865C255.949 171.695 256.077 171.396 256.098 170.969L256.002 152.793L243.586 152.953ZM274.53 156.057C273.037 156.079 271.842 156.175 270.946 156.345L269.922 155.289L280.322 155.065L280.354 153.337L280.162 148.057L284.034 148.953C284.162 148.975 284.226 149.039 284.226 149.145C284.226 149.231 284.183 149.316 284.098 149.401C283.714 149.721 283.49 150.127 283.426 150.617L283.394 155.001L290.018 154.841L291.938 152.793L294.242 155.161C294.327 155.247 294.359 155.321 294.338 155.385C294.317 155.471 294.263 155.513 294.178 155.513L285.122 155.769C285.613 157.348 286.05 158.617 286.434 159.577C287.01 160.985 287.661 162.201 288.386 163.225C290.199 165.785 293.186 168.335 297.346 170.873C297.474 170.937 297.527 171.023 297.506 171.129C297.485 171.236 297.389 171.289 297.218 171.289C296.514 171.289 295.789 171.439 295.042 171.737C294.295 172.036 293.271 172.591 291.97 173.401C289.602 170.585 287.97 167.919 287.074 165.401C286.178 162.884 285.389 159.684 284.706 155.801L283.394 155.833L283.362 168.985L284.834 168.953L286.242 167.545L288.13 169.241C288.194 169.305 288.215 169.369 288.194 169.433C288.173 169.497 288.13 169.54 288.066 169.561L283.362 169.657V171.161L283.426 175.226C283.447 175.972 283.085 176.826 282.338 177.786C281.634 178.703 281.058 179.161 280.61 179.161C280.461 179.161 280.343 179.119 280.258 179.034C280.151 178.927 280.087 178.746 280.066 178.49L280.226 173.017V169.721H279.554C278.125 169.743 276.973 169.839 276.098 170.009L275.202 169.113L280.226 169.049L280.29 161.081C277.751 164.623 273.399 169.071 267.234 174.425C267.021 174.575 266.871 174.607 266.786 174.521C266.679 174.415 266.711 174.276 266.882 174.105C269.506 171.311 271.767 168.537 273.666 165.785C275.65 162.905 277.527 159.62 279.298 155.929L274.53 156.057ZM307.938 150.265L308.898 149.561C310.989 151.951 312.525 154.212 313.506 156.345C314.594 158.713 315.127 161.188 315.106 163.769C315.085 166.564 314.573 169.081 313.57 171.321C312.631 173.412 311.085 175.61 308.93 177.914L308.034 177.178C311.021 173.273 312.45 168.783 312.322 163.705C312.343 161.124 312.013 158.799 311.33 156.729C310.669 154.681 309.538 152.527 307.938 150.265Z" fill="#553624"/>
<path d="M6.848 231.297C5.824 231.297 4.56533 231.404 3.072 231.617L2.08 230.561L14.304 230.465L14.368 225.153L17.92 226.113C18.048 226.156 18.112 226.209 18.112 226.273C18.112 226.359 18.0693 226.497 17.984 226.689L17.6 227.489L17.504 230.433L25.856 230.369L27.776 228.225L30.208 230.561C30.2933 230.647 30.3253 230.721 30.304 230.785C30.2827 230.871 30.2293 230.913 30.144 230.913L14.784 231.169L17.568 232.225C17.76 232.289 17.8027 232.449 17.696 232.705L17.504 234.177V236.673L23.008 236.545L24.288 235.042L26.976 236.673C27.1467 236.759 27.1573 236.887 27.008 237.057L26.208 238.081L26.24 243.521L26.368 246.593C26.3467 247.468 25.9733 248.3 25.248 249.089C24.6293 249.751 23.7653 250.348 22.656 250.882C22.5067 250.924 22.4213 250.86 22.4 250.689C22.4213 249.601 22.016 248.844 21.184 248.417C21.0773 248.353 21.024 248.279 21.024 248.193C21.0453 248.108 21.1093 248.065 21.216 248.065C21.9627 248.087 22.464 248.044 22.72 247.938C22.9333 247.852 23.0613 247.681 23.104 247.425L22.944 237.249L17.504 237.345L17.472 247.361L17.568 251.393C17.5893 252.204 17.2587 253.1 16.576 254.082C15.9787 254.956 15.4347 255.5 14.944 255.714C14.7733 255.799 14.624 255.788 14.496 255.682C14.3467 255.554 14.2827 255.34 14.304 255.042L14.4 247.714L14.464 237.409L9.312 237.505L9.28 247.265C9.152 248.183 8.48 249.249 7.264 250.465C6.98667 250.721 6.76267 250.807 6.592 250.721C6.44267 250.636 6.368 250.444 6.368 250.145L6.496 245.985L6.56 238.753L6.464 235.425C6.464 235.319 6.48533 235.255 6.528 235.233C6.57067 235.212 6.63467 235.223 6.72 235.265L9.504 236.833L14.432 236.737L14.304 231.169L6.848 231.297ZM52.512 225.761L55.52 227.265C55.648 227.351 55.648 227.457 55.52 227.585L54.528 228.865L52.896 235.873L56.32 235.681L57.6 233.953L60.512 235.713C60.64 235.799 60.6293 235.916 60.48 236.065L59.552 237.249C57.7813 240.876 55.424 244.183 52.48 247.169C55.552 249.921 59.008 252.14 62.848 253.826C62.9547 253.868 62.9973 253.943 62.976 254.049C62.9547 254.156 62.9013 254.22 62.816 254.242C61.3013 254.199 59.8507 254.903 58.464 256.354C55.1147 254.348 52.3627 252.002 50.208 249.313C47.3067 251.874 43.872 254.231 39.904 256.386C39.7547 256.471 39.648 256.46 39.584 256.354C39.52 256.226 39.5413 256.108 39.648 256.002C43.4453 253.676 46.6453 251.009 49.248 248.001C47.1147 244.951 45.3547 240.951 43.968 236.001C43.9893 240.439 43.2 244.161 41.6 247.169C40 250.199 37.0347 253.1 32.704 255.874C32.5547 255.895 32.4587 255.842 32.416 255.714C32.3733 255.586 32.4053 255.479 32.512 255.394C35.5413 253.218 37.696 250.913 38.976 248.481C40.256 246.071 41.0027 243.383 41.216 240.417C41.344 238.732 41.408 236.929 41.408 235.009V231.489C41.408 230.337 41.376 229.249 41.312 228.225L36.96 228.321C36.8107 228.321 36.736 228.236 36.736 228.065C36.736 227.916 36.8213 227.809 36.992 227.745L51.392 227.361L52.512 225.761ZM56.256 236.385L52.704 236.577C52.0853 237.431 51.296 238.049 50.336 238.433C49.9093 238.583 49.6533 238.508 49.568 238.209L51.584 227.937L42.112 228.193L44.256 229.249L43.968 229.921V234.145C45.2053 238.412 47.5627 242.295 51.04 245.793C53.088 243.041 54.8267 239.905 56.256 236.385ZM86.432 227.041L90.752 228.801C90.9013 228.844 90.976 228.919 90.976 229.025C90.976 229.132 90.912 229.26 90.784 229.409L89.792 230.689L89.76 239.649C89.6747 242.764 88.8853 245.303 87.392 247.265C88.48 247.521 89.536 247.959 90.56 248.577C91.584 249.196 92.2027 249.772 92.416 250.305C92.5867 250.924 92.48 251.628 92.096 252.418C91.6907 253.186 91.0933 253.634 90.304 253.762C89.6427 253.847 89.1947 253.484 88.96 252.674C88.3413 250.604 87.616 249.047 86.784 248.001C85.44 249.473 83.4987 250.807 80.96 252.002C78.848 253.004 75.7547 254.135 71.68 255.394C71.5307 255.415 71.4347 255.362 71.392 255.234C71.3493 255.106 71.4133 254.999 71.584 254.914C75.1253 253.74 77.92 252.524 79.968 251.265C82.016 250.007 83.52 248.641 84.48 247.169C85.888 244.887 86.592 242.167 86.592 239.009V231.873C86.528 229.121 86.4747 227.511 86.432 227.041ZM80.448 235.713C80.5973 235.607 80.7253 235.596 80.832 235.681C80.9173 235.745 80.9067 235.852 80.8 236.001L73.6 246.849C72.6613 248.215 71.008 250.913 68.64 254.946C68.5333 255.095 68.4373 255.17 68.352 255.17C68.2667 255.17 68.16 255.095 68.032 254.946C67.4347 253.644 67.0613 252.631 66.912 251.905C66.848 251.521 66.9013 251.244 67.072 251.073C67.6693 250.519 68.512 249.697 69.6 248.609L69.344 232.097C69.3227 230.199 69.2373 228.609 69.088 227.329L72.576 228.705C72.768 228.791 72.7787 228.94 72.608 229.153L71.968 230.081L71.456 246.625C71.6053 246.455 72.1067 245.868 72.96 244.865L80.448 235.713ZM78.24 226.945C79.4987 227.5 80.4373 228.033 81.056 228.545C81.76 229.121 82.1013 229.74 82.08 230.401C81.9093 231.404 81.344 232.108 80.384 232.513C79.552 232.748 79.1147 232.503 79.072 231.777C78.9867 229.857 78.592 228.343 77.888 227.233C77.824 227.148 77.824 227.073 77.888 227.009C77.9733 226.903 78.0907 226.881 78.24 226.945ZM102.016 228.961C100.544 229.089 99.424 229.217 98.656 229.345L97.504 228.161L121.472 227.809L123.648 225.697L126.304 228.161C126.368 228.225 126.4 228.289 126.4 228.353C126.379 228.46 126.304 228.524 126.176 228.545L110.688 228.833L112.736 229.537C112.843 229.601 112.896 229.729 112.896 229.921L112.736 231.393L112.704 245.537L112.832 251.489C112.747 252.279 112.32 253.1 111.552 253.954C110.763 254.807 110.187 255.266 109.824 255.33C109.675 255.33 109.557 255.287 109.472 255.202C109.365 255.095 109.301 254.914 109.28 254.658L109.504 246.177L109.568 232.257C109.461 230.7 109.355 229.559 109.248 228.833L102.016 228.961ZM115.232 235.521C120.309 237.74 123.019 239.479 123.36 240.737C123.531 241.335 123.413 242.028 123.008 242.817C122.603 243.607 122.101 244.151 121.504 244.449C120.843 244.769 120.416 244.631 120.224 244.033C119.669 242.327 118.955 240.801 118.08 239.457C117.291 238.22 116.277 237.004 115.04 235.809C114.997 235.767 114.997 235.703 115.04 235.617C115.083 235.532 115.147 235.5 115.232 235.521Z" fill="#553624"/>
<path d="M623.984 140.68L626.352 142.056C628.443 140.797 630.096 139.656 631.312 138.632C631.525 138.504 631.717 138.504 631.888 138.632L634.032 141.352C634.096 141.459 634.107 141.555 634.064 141.64C634.021 141.725 633.936 141.779 633.808 141.8C632.464 141.864 630.032 142.237 626.512 142.92L626.384 143.016V148.712L633.232 148.616L634.992 146.792L637.136 148.744C637.221 148.808 637.253 148.893 637.232 149C637.211 149.085 637.147 149.139 637.04 149.16L630.864 149.32L632.944 150.568C633.221 150.717 633.232 150.941 632.976 151.24L632.304 152.168L632.432 164.776C632.325 166.163 631.643 167.229 630.384 167.976C630.128 168.147 629.915 168.221 629.744 168.2C629.552 168.179 629.456 168.072 629.456 167.88L629.328 149.352L626.384 149.416C626.384 152.061 626.213 154.344 625.872 156.264C625.531 158.248 624.869 159.976 623.888 161.448C622.096 164.243 618.384 166.728 612.752 168.904C612.603 168.925 612.517 168.893 612.496 168.808C612.475 168.723 612.517 168.637 612.624 168.552C615.867 166.803 618.288 165.192 619.888 163.72C621.488 162.248 622.544 160.413 623.056 158.216C623.568 155.933 623.813 152.691 623.792 148.488V144.552C623.792 143.059 623.76 141.832 623.696 140.872C623.696 140.744 623.717 140.669 623.76 140.648C623.803 140.627 623.877 140.637 623.984 140.68ZM620.368 139.848C620.496 139.72 620.592 139.645 620.656 139.624C620.741 139.624 620.827 139.709 620.912 139.88L622.064 141.992C622.107 142.12 622.117 142.205 622.096 142.248C622.053 142.312 621.968 142.355 621.84 142.376C619.323 142.867 616.997 143.251 614.864 143.528V148.136L618.704 148.072L619.888 146.696L622.192 148.168C622.363 148.253 622.373 148.392 622.224 148.584L621.584 149.384L621.552 154.856L621.84 155.4C621.904 155.528 621.915 155.635 621.872 155.72C621.829 155.805 621.744 155.848 621.616 155.848C619.419 155.72 617.04 155.688 614.48 155.752C614.096 158.909 613.328 161.405 612.176 163.24C611.067 165.011 609.189 166.781 606.544 168.552C606.416 168.637 606.32 168.648 606.256 168.584C606.192 168.52 606.203 168.435 606.288 168.328C608.272 166.6 609.712 164.893 610.608 163.208C611.504 161.523 612.059 159.485 612.272 157.096C612.464 155.048 612.56 152.499 612.56 149.448V143.848C612.56 142.973 612.528 142.312 612.464 141.864C612.443 141.779 612.453 141.715 612.496 141.672C612.539 141.651 612.603 141.651 612.688 141.672L614.928 142.728C616.955 142.109 618.768 141.149 620.368 139.848ZM618.832 148.712L614.864 148.808V148.872C614.864 150.707 614.768 152.776 614.576 155.08L618.768 155.016L618.832 148.712ZM647.504 138.76L650.416 140.488C650.48 140.616 650.491 140.776 650.448 140.968C649.851 142.504 649.179 144.008 648.432 145.48L652.048 145.32L653.328 143.784L656.144 145.64C656.357 145.811 656.357 145.981 656.144 146.152L655.056 147.432C653.435 151.933 651.291 156.008 648.624 159.656C648.709 159.805 648.859 160.029 649.072 160.328C649.904 161.565 651.227 162.44 653.04 162.952C655.365 163.613 660.539 163.795 668.56 163.496C668.752 163.475 668.859 163.528 668.88 163.656C668.901 163.763 668.837 163.869 668.688 163.976C667.877 164.125 667.205 164.477 666.672 165.032C666.096 165.629 665.531 166.6 664.976 167.944C661.456 167.965 657.883 167.72 654.256 167.208C652.699 166.931 651.536 166.515 650.768 165.96C650.021 165.427 649.285 164.477 648.56 163.112C648.261 162.6 647.931 161.907 647.568 161.032C645.307 163.891 642.555 166.653 639.312 169.32C639.184 169.384 639.088 169.363 639.024 169.256C638.96 169.149 638.971 169.043 639.056 168.936C642.192 165.949 644.773 162.632 646.8 158.984C646.117 156.915 645.531 154.845 645.04 152.776L645.424 152.616C646.149 154.707 646.843 156.392 647.504 157.672C649.083 154.621 650.597 150.749 652.048 146.056L648.016 146.216C645.904 150.269 643.493 153.875 640.784 157.032C640.677 157.117 640.581 157.128 640.496 157.064C640.389 156.979 640.357 156.851 640.4 156.68C643.643 151.965 645.904 146.088 647.184 139.048C647.184 138.899 647.205 138.803 647.248 138.76C647.312 138.717 647.397 138.717 647.504 138.76ZM660.816 139.784L660.656 141.256L660.624 154.92L660.688 158.6C660.603 159.389 660.24 160.2 659.6 161.032C658.939 161.885 658.448 162.344 658.128 162.408C657.979 162.408 657.872 162.365 657.808 162.28C657.723 162.173 657.669 161.992 657.648 161.736L657.712 156.456L657.904 142.12C657.776 140.179 657.659 138.845 657.552 138.12L660.688 139.4C660.773 139.464 660.816 139.592 660.816 139.784ZM661.84 145.672C663.739 146.589 665.115 147.315 665.968 147.848C667.056 148.531 667.685 149.149 667.856 149.704C667.835 150.92 667.387 151.923 666.512 152.712C666.213 152.968 665.925 153.032 665.648 152.904C665.392 152.797 665.211 152.541 665.104 152.136C664.656 150.472 664.197 149.235 663.728 148.424C663.301 147.677 662.608 146.856 661.648 145.96C661.605 145.917 661.605 145.853 661.648 145.768C661.691 145.683 661.755 145.651 661.84 145.672ZM691.472 152.968L692.848 151.272L695.984 153.16C696.155 153.267 696.155 153.427 695.984 153.64L695.216 154.664L695.248 160.136L695.312 163.656C695.248 165.341 694.352 166.909 692.624 168.36C692.411 168.509 692.219 168.563 692.048 168.52C691.899 168.499 691.803 168.381 691.76 168.168C691.483 167.08 691.152 166.184 690.768 165.48L681.872 165.672C681.701 166.589 681.147 167.517 680.208 168.456C679.931 168.669 679.717 168.765 679.568 168.744C679.419 168.723 679.323 168.605 679.28 168.392L679.376 153.288C677.264 153.928 674.587 154.675 671.344 155.528C671.173 155.549 671.077 155.507 671.056 155.4C671.035 155.293 671.088 155.197 671.216 155.112C675.739 153.64 679.451 152.232 682.352 150.888C686.384 149.032 689.819 146.92 692.656 144.552L694.928 146.728C694.992 146.792 695.013 146.856 694.992 146.92C694.971 146.984 694.907 147.027 694.8 147.048L694.256 147.144C690.757 149.171 686.309 151.059 680.912 152.808L681.872 153.224L691.472 152.968ZM681.968 153.864L681.936 156.872L690 156.616C690.235 156.616 690.352 156.733 690.352 156.968C690.352 157.203 690.224 157.32 689.968 157.32L681.936 157.544L681.904 160.584L690.224 160.328C690.48 160.371 690.597 160.499 690.576 160.712C690.576 160.883 690.448 160.989 690.192 161.032L681.904 161.288V164.936L691.312 164.744C691.504 164.552 691.6 164.221 691.6 163.752L691.696 153.576L681.968 153.864ZM688.208 140.808L688.112 145.256C687.941 146.408 687.141 147.549 685.712 148.68C685.371 148.787 685.168 148.701 685.104 148.424L685.232 144.392V142.152L685.168 138.12L688.432 139.528C688.603 139.613 688.645 139.752 688.56 139.944L688.208 140.808ZM680.016 140.872L682.448 142.728C682.533 142.856 682.512 142.984 682.384 143.112C680.72 144.669 679.12 146.024 677.584 147.176C676.453 148.008 674.875 149.064 672.848 150.344C672.741 150.365 672.677 150.355 672.656 150.312C672.635 150.248 672.656 150.163 672.72 150.056C674.341 148.691 675.707 147.272 676.816 145.8C677.712 144.605 678.661 143.027 679.664 141.064C679.707 140.957 679.76 140.883 679.824 140.84C679.888 140.797 679.952 140.808 680.016 140.872ZM692.048 141.48C693.584 141.864 694.768 142.184 695.6 142.44C697.072 142.909 698.224 143.411 699.056 143.944C699.355 144.2 699.504 144.637 699.504 145.256C699.504 145.917 699.323 146.493 698.96 146.984C698.277 147.731 697.648 147.677 697.072 146.824C695.216 144.243 693.509 142.547 691.952 141.736C691.867 141.715 691.835 141.661 691.856 141.576C691.877 141.491 691.941 141.459 692.048 141.48ZM723.664 138.824L723.952 138.76C724.848 141.64 726.096 144.083 727.696 146.088C729.125 147.901 731.077 149.64 733.552 151.304C733.701 151.389 733.765 151.496 733.744 151.624C733.723 151.731 733.627 151.773 733.456 151.752C732.88 151.752 732.347 151.88 731.856 152.136C731.323 152.413 730.661 152.915 729.872 153.64C729.189 152.808 728.688 152.157 728.368 151.688L727.568 152.712L727.12 162.472C727.12 163.411 726.789 164.371 726.128 165.352C725.403 166.397 724.432 167.229 723.216 167.848C723.045 167.955 722.907 167.965 722.8 167.88C722.693 167.816 722.661 167.699 722.704 167.528C722.725 166.44 722.405 165.672 721.744 165.224C721.637 165.16 721.595 165.075 721.616 164.968C721.637 164.84 721.723 164.787 721.872 164.808C722.725 164.765 723.291 164.637 723.568 164.424C723.867 164.232 724.016 163.88 724.016 163.368L724.592 151.816L719.056 152.008L720.88 152.712C721.051 152.797 721.147 152.883 721.168 152.968C721.189 153.075 721.157 153.299 721.072 153.64C721.008 157.437 720.091 160.477 718.32 162.76C716.549 165.043 713.307 167.155 708.592 169.096C708.443 169.139 708.336 169.107 708.272 169C708.208 168.872 708.229 168.787 708.336 168.744C712.539 166.632 715.323 164.445 716.688 162.184C718.032 159.944 718.64 156.563 718.512 152.04H718.256C717.211 152.083 716.304 152.157 715.536 152.264L714.736 151.528L724.496 151.176L725.744 149.608L727.792 150.888C726.704 149.245 725.851 147.528 725.232 145.736C724.613 143.923 724.091 141.619 723.664 138.824ZM702.576 156.456C702.448 156.563 702.341 156.563 702.256 156.456C702.149 156.349 702.16 156.221 702.288 156.072C706.555 151.592 710.117 145.747 712.976 138.536L715.728 140.264C715.899 140.392 715.888 140.552 715.696 140.744L715.248 141.256C714.075 143.24 712.859 145.064 711.6 146.728L711.856 163.016C711.835 163.549 711.632 164.168 711.248 164.872C710.907 165.469 710.48 166.056 709.968 166.632C709.755 166.803 709.584 166.888 709.456 166.888C709.328 166.888 709.253 166.771 709.232 166.536L709.424 157.96L709.456 149.48C707.472 151.848 705.179 154.173 702.576 156.456ZM712.176 154.28C712.069 154.365 711.963 154.365 711.856 154.28C711.749 154.195 711.76 154.077 711.888 153.928C713.637 151.304 715.035 148.925 716.08 146.792C717.232 144.445 718.267 141.779 719.184 138.792L721.968 140.328C722.075 140.392 722.128 140.445 722.128 140.488C722.128 140.552 722.064 140.637 721.936 140.744L721.392 141.352C718.64 146.024 715.568 150.333 712.176 154.28ZM742.544 142.6C741.072 142.728 739.952 142.856 739.184 142.984L738.032 141.8L760.112 141.448L762.064 139.432L764.336 141.8C764.4 141.864 764.432 141.928 764.432 141.992C764.411 142.099 764.336 142.163 764.208 142.184L754.192 142.376L755.952 143.976C756.08 144.168 755.931 144.403 755.504 144.68C755.056 145.277 754.363 146.173 753.424 147.368L753.456 164.712C753.456 165.437 753.083 166.237 752.336 167.112C751.696 167.859 751.227 168.253 750.928 168.296C750.523 168.36 750.288 168.168 750.224 167.72L750.32 162.44L750.448 150.824C745.733 155.944 740.496 160.125 734.736 163.368C734.565 163.475 734.437 163.464 734.352 163.336C734.288 163.208 734.32 163.08 734.448 162.952C737.648 160.883 740.496 158.557 742.992 155.976C745.573 153.309 747.888 150.237 749.936 146.76C749.787 146.205 749.701 145.885 749.68 145.8C749.637 145.693 749.659 145.597 749.744 145.512C749.829 145.427 749.947 145.405 750.096 145.448L750.544 145.704C751.227 144.424 751.792 143.325 752.24 142.408L742.544 142.6ZM757.04 151.016C760.709 152.552 763.12 154.355 764.272 156.424C764.613 157.021 764.656 157.715 764.4 158.504C764.144 159.272 763.739 159.795 763.184 160.072C762.245 160.328 761.68 160.061 761.488 159.272C761.104 157.587 760.528 156.115 759.76 154.856C759.077 153.725 758.107 152.541 756.848 151.304C756.805 151.261 756.805 151.197 756.848 151.112C756.891 151.027 756.955 150.995 757.04 151.016ZM781.936 145.416C780.656 145.437 779.525 145.565 778.544 145.8L777.584 144.776L782.672 144.68L782.608 141.544C782.587 140.456 782.544 139.773 782.48 139.496C782.459 139.389 782.469 139.315 782.512 139.272C782.555 139.229 782.64 139.24 782.768 139.304L785.04 140.296C785.189 140.381 785.264 140.52 785.264 140.712L785.136 144.648L788.016 144.584L790.48 138.28L793.488 139.784C793.637 139.848 793.648 139.976 793.52 140.168L792.72 140.744L789.84 144.552L792.144 144.488L793.616 142.824L795.728 144.744C795.813 144.787 795.835 144.851 795.792 144.936C795.749 145 795.675 145.043 795.568 145.064L786.128 145.32L787.728 145.8C787.941 145.864 787.984 146.045 787.856 146.344L787.632 146.856L787.6 150.504L790.832 150.408L792.432 148.744L794.352 150.568C794.459 150.653 794.501 150.739 794.48 150.824C794.459 150.909 794.384 150.963 794.256 150.984L787.6 151.208L787.536 156.584L793.104 156.456L794.928 154.536L797.072 156.616C797.157 156.701 797.179 156.787 797.136 156.872C797.093 156.957 797.019 157.011 796.912 157.032L787.536 157.256V159.72L787.664 165.352C787.536 166.419 786.896 167.453 785.744 168.456C785.552 168.627 785.381 168.733 785.232 168.776C784.955 168.861 784.805 168.733 784.784 168.392L784.88 160.84L784.912 157.32L781.328 157.416C779.877 157.501 778.747 157.64 777.936 157.832L776.976 156.776L784.912 156.616L784.976 151.304L783.28 151.368C781.872 151.432 780.741 151.56 779.888 151.752L778.928 150.76L784.976 150.6L785.008 149.128L784.816 145.352L781.936 145.416ZM779.728 158.024C779.792 157.96 779.856 157.96 779.92 158.024C779.984 158.088 779.984 158.163 779.92 158.248L775.344 164.392C774.576 165.395 773.808 166.397 773.04 167.4C772.955 167.528 772.891 167.603 772.848 167.624C772.805 167.645 772.731 167.624 772.624 167.56L770.448 165.32C770.363 165.256 770.309 165.192 770.288 165.128C770.267 165.043 770.299 164.968 770.384 164.904C770.875 164.691 771.824 164.061 773.232 163.016L773.136 148.936L770.96 149.032C769.637 149.096 768.763 149.181 768.336 149.288L767.216 148.328L772.88 148.168L774.192 146.536L776.656 147.976C776.784 148.061 776.784 148.168 776.656 148.296L775.984 149.352L775.312 161.448L779.728 158.024ZM771.472 138.952C774.075 139.891 775.483 140.744 775.696 141.512C775.824 141.96 775.728 142.461 775.408 143.016C775.109 143.528 774.747 143.923 774.32 144.2C773.701 144.435 773.296 144.317 773.104 143.848C772.869 142.568 772.624 141.608 772.368 140.968C772.112 140.349 771.728 139.763 771.216 139.208C771.195 139.123 771.205 139.048 771.248 138.984C771.291 138.92 771.365 138.909 771.472 138.952Z" fill="#553624"/>
<path d="M618.512 89.096C618.341 89.2027 618.224 89.2133 618.16 89.128C618.075 89.0213 618.096 88.8933 618.224 88.744C621.488 85.992 623.973 83.016 625.68 79.816C625.147 78.3867 624.709 76.7227 624.368 74.824C624.155 73.6293 623.92 71.9973 623.664 69.928C622.704 71.464 621.691 73.0213 620.624 74.6C620.517 74.6853 620.432 74.7067 620.368 74.664C620.283 74.6213 620.261 74.536 620.304 74.408C623.141 68.2853 625.051 62.952 626.032 58.408C626.053 58.216 626.16 58.152 626.352 58.216L629.488 60.424C629.68 60.616 629.659 60.7867 629.424 60.936C628.891 61.2347 628.453 61.704 628.112 62.344C627.365 63.7093 626.48 65.2667 625.456 67.016L631.664 66.6L633.36 64.68L635.824 66.696C635.909 66.7813 635.941 66.856 635.92 66.92C635.899 66.984 635.835 67.0267 635.728 67.048L630.128 67.432L632.08 68.776C632.379 68.9253 632.347 69.288 631.984 69.864C631.173 73.3627 629.925 76.4667 628.24 79.176C630.352 82.184 633.157 84.424 636.656 85.896C636.805 85.96 636.869 86.0667 636.848 86.216C636.827 86.344 636.741 86.408 636.592 86.408C635.141 86.3653 633.541 87.016 631.792 88.36C629.531 86.5253 627.771 84.3173 626.512 81.736C624.421 84.4453 621.755 86.8987 618.512 89.096ZM619.92 59.976L619.76 61.448V81.032L619.824 84.712C619.76 85.5227 619.419 86.344 618.8 87.176C618.16 88.008 617.68 88.456 617.36 88.52C617.104 88.52 616.965 88.296 616.944 87.848L617.008 82.568L617.04 75.816L612.784 79.176C611.824 79.944 610.661 80.9573 609.296 82.216C609.189 82.3013 609.093 82.344 609.008 82.344C608.901 82.3227 608.837 82.2373 608.816 82.088C608.624 80.8507 608.528 79.784 608.528 78.888C608.528 78.5467 608.645 78.3333 608.88 78.248C609.541 78.0133 610.331 77.7253 611.248 77.384L611.12 66.568C611.099 64.7547 611.013 63.24 610.864 62.024L614.128 63.336C614.299 63.4213 614.309 63.56 614.16 63.752L613.584 64.648L613.136 76.68L617.04 75.208L617.136 62.312C617.051 60.4773 616.944 59.144 616.816 58.312L619.792 59.592C619.877 59.656 619.92 59.784 619.92 59.976ZM625.008 67.784C624.709 68.296 624.4 68.7973 624.08 69.288C624.848 72.4027 625.797 74.9947 626.928 77.064C627.973 74.4187 628.731 71.2293 629.2 67.496L625.008 67.784ZM646.416 66.984C646.395 66.8773 646.405 66.8027 646.448 66.76C646.491 66.7173 646.555 66.7173 646.64 66.76L649.52 68.136L658.128 68.04C658.043 66.6747 658.011 65.6187 658.032 64.872C658.011 64.7653 658.021 64.7013 658.064 64.68C658.085 64.6373 658.117 64.6267 658.16 64.648L660.912 65.928C661.104 65.992 661.136 66.1093 661.008 66.28L660.528 67.08C660.507 67.2933 660.496 67.6027 660.496 68.008L663.952 67.944L665.424 66.344L667.568 68.168C667.611 68.232 667.621 68.3067 667.6 68.392C667.579 68.4773 667.515 68.52 667.408 68.52L660.496 68.648C660.475 72.3173 660.827 75.3253 661.552 77.672C662.213 76.1573 662.907 74.152 663.632 71.656L666.16 72.936C666.288 73 666.363 73.0747 666.384 73.16C666.405 73.2667 666.352 73.3947 666.224 73.544C665.2 76.0613 664.016 78.3013 662.672 80.264C663.568 81.8427 664.88 83.272 666.608 84.552C666.992 84.808 667.333 84.776 667.632 84.456L668.624 83.528C668.709 83.4213 668.795 83.3893 668.88 83.432C668.944 83.4747 668.955 83.5707 668.912 83.72C668.485 84.7867 668.539 85.7467 669.072 86.6C669.499 87.4747 669.424 88.104 668.848 88.488C668.272 88.872 667.365 88.7547 666.128 88.136C663.888 86.8773 662.149 85.0427 660.912 82.632C658.992 84.936 656.485 87.24 653.392 89.544C653.285 89.6293 653.2 89.6187 653.136 89.512C653.093 89.4053 653.104 89.3093 653.168 89.224C655.259 87.2827 657.008 85.3307 658.416 83.368L651.344 83.656C651.259 84.5733 650.832 85.48 650.064 86.376C649.851 86.504 649.691 86.5573 649.584 86.536C649.477 86.5147 649.435 86.4187 649.456 86.248L649.584 81.288L649.68 73.448C649.68 72.36 649.648 71.304 649.584 70.28C649.584 70.1947 649.605 70.152 649.648 70.152C649.691 70.1307 649.755 70.1413 649.84 70.184L651.696 71.336L654.96 71.24L656.24 70.024L657.68 71.4C657.808 71.4853 657.872 71.56 657.872 71.624C657.872 71.7093 657.819 71.7733 657.712 71.816L654.672 71.912L654.608 74.824L655.024 74.792L655.984 73.736L657.68 74.888C657.829 74.9733 657.851 75.1013 657.744 75.272L657.2 76.008L657.168 78.664L657.36 79.08C657.381 79.1867 657.381 79.272 657.36 79.336C657.317 79.3787 657.243 79.3893 657.136 79.368C656.475 79.3253 655.675 79.3147 654.736 79.336L654.672 82.856L655.568 82.792L656.784 81.48L658.544 83.016C658.565 83.0587 658.587 83.0907 658.608 83.112C659.163 82.3013 659.653 81.512 660.08 80.744C659.056 78.056 658.448 74.536 658.256 70.184C658.235 69.864 658.203 69.3627 658.16 68.68L648.912 68.84L648.88 73.896C648.923 77.7147 648.389 80.7227 647.28 82.92C646.171 85.1173 644.005 87.2507 640.784 89.32C640.635 89.3627 640.528 89.352 640.464 89.288C640.4 89.2027 640.421 89.1067 640.528 89C642.512 87.464 643.952 85.8 644.848 84.008C645.744 82.216 646.288 79.9013 646.48 77.064L644.016 77.192L645.264 77.704C645.349 77.768 645.339 77.8533 645.232 77.96L644.976 78.344C644.08 80.5627 642.299 83.0907 639.632 85.928C639.461 86.0347 639.355 86.0667 639.312 86.024C639.248 85.9813 639.259 85.8853 639.344 85.736C640.88 83.7093 642.075 80.8827 642.928 77.256L641.168 77.352C641.019 77.3307 640.944 77.224 640.944 77.032C640.944 76.84 641.008 76.7333 641.136 76.712L646.544 76.424C646.587 75.2293 646.608 74.2693 646.608 73.544L641.68 73.832C641.531 73.8107 641.456 73.704 641.456 73.512C641.456 73.32 641.52 73.2133 641.648 73.192C642.203 73.128 642.491 72.8293 642.512 72.296L642.96 67.368C642.981 67.1973 643.056 67.1333 643.184 67.176L645.328 67.944C645.413 67.9653 645.424 68.0933 645.36 68.328L644.112 73.064L646.608 72.936V72.488V70.792L646.416 66.984ZM645.168 63.016C643.611 63.1227 642.491 63.2507 641.808 63.4L640.656 62.28L649.52 62.184L649.552 58.44L652.528 59.656C652.592 59.6773 652.635 59.7093 652.656 59.752C652.656 59.7947 652.635 59.8587 652.592 59.944L652.208 60.456L652.048 62.152L656.336 62.088L656.56 58.312L659.632 59.464C659.696 59.4853 659.728 59.5173 659.728 59.56C659.728 59.6027 659.707 59.6667 659.664 59.752L659.216 60.36L658.672 62.056L663.152 61.992L665.072 60.2L667.344 62.28C667.408 62.344 667.44 62.408 667.44 62.472C667.419 62.5787 667.344 62.6427 667.216 62.664L658.448 62.824L658.032 64.2C657.584 64.968 657.083 65.4373 656.528 65.608C656.336 65.544 656.208 65.384 656.144 65.128L656.272 62.856L651.984 62.92L651.888 63.944C651.461 65.096 650.843 65.9173 650.032 66.408C649.755 66.4933 649.584 66.4293 649.52 66.216V62.952L645.168 63.016ZM655.12 75.368L651.472 75.528L651.408 78.92L654.992 78.76L655.12 75.368ZM661.488 63.656C662.469 63.976 663.195 64.2853 663.664 64.584C664.24 64.9467 664.549 65.3413 664.592 65.768C664.549 66.3867 664.176 66.8667 663.472 67.208C662.853 67.4427 662.491 67.3147 662.384 66.824C662.299 65.5013 661.915 64.5093 661.232 63.848C661.168 63.8053 661.168 63.752 661.232 63.688C661.275 63.624 661.36 63.6133 661.488 63.656ZM652.976 79.432C652.699 79.432 652.176 79.4533 651.408 79.496L651.344 83.048L652.944 82.952L652.976 79.432ZM651.536 71.976L651.472 74.952L652.976 74.888L653.04 71.944L651.536 71.976ZM696.304 61.96C696.411 62.024 696.411 62.12 696.304 62.248L695.408 63.592L693.68 82.504C693.659 82.9307 693.701 83.2293 693.808 83.4C693.893 83.5493 694.107 83.656 694.448 83.72C695.472 83.8267 696.624 83.6987 697.904 83.336C698.352 83.208 698.704 82.9627 698.96 82.6C699.173 82.3013 699.461 81.736 699.824 80.904C699.888 80.7547 699.984 80.6907 700.112 80.712C700.24 80.7333 700.283 80.8293 700.24 81C700.027 82.0453 699.952 82.7707 700.016 83.176C700.08 83.6027 700.325 83.976 700.752 84.296C701.371 84.7867 701.595 85.2987 701.424 85.832C701.275 86.3653 700.795 86.728 699.984 86.92C698.491 87.2827 696.763 87.3467 694.8 87.112C693.819 87.0053 693.04 86.5253 692.464 85.672C691.867 84.7973 691.589 83.6667 691.632 82.28L692.144 62.76L688.816 62.856V66.696C688.901 70.6427 688.816 73.832 688.56 76.264C688.304 78.696 687.664 80.712 686.64 82.312C685.168 84.616 682.256 86.9733 677.904 89.384C677.755 89.4693 677.637 89.4373 677.552 89.288C677.467 89.1387 677.509 89.0107 677.68 88.904C679.792 87.624 681.456 86.3333 682.672 85.032C683.867 83.752 684.731 82.2693 685.264 80.584C686.117 77.7467 686.469 73.3947 686.32 67.528V63.752L686.096 60.552C686.075 60.488 686.096 60.4347 686.16 60.392C686.224 60.3493 686.277 60.3493 686.32 60.392L688.752 62.248L691.984 62.12L693.232 60.328L696.304 61.96ZM678.288 58.152L681.104 59.528C681.232 59.6347 681.243 59.7307 681.136 59.816L680.624 60.776L680.592 65.64L681.808 65.608L683.28 64.136L684.976 65.864C685.083 66.0133 685.051 66.12 684.88 66.184L680.592 66.28L680.56 69.96C682.821 70.6427 684.048 71.2933 684.24 71.912C684.304 72.1893 684.208 72.5413 683.952 72.968C683.717 73.352 683.461 73.64 683.184 73.832C682.885 73.9813 682.661 74.024 682.512 73.96C682.384 73.9173 682.277 73.768 682.192 73.512C681.787 72.2107 681.243 71.208 680.56 70.504L680.528 77.512L680.688 82.92C680.688 84.2427 680.069 85.4693 678.832 86.6C678.597 86.7707 678.395 86.824 678.224 86.76C678.053 86.696 677.979 86.5467 678 86.312L678.192 77.288L678.16 72.744C676.539 75.2613 674.085 78.2587 670.8 81.736C670.693 81.864 670.597 81.8853 670.512 81.8C670.427 81.6933 670.405 81.576 670.448 81.448C673.584 77.3093 676.112 72.264 678.032 66.312H677.2C675.963 66.312 674.789 66.408 673.68 66.6L672.784 65.672L678.16 65.64V62.568C678.16 60.904 678.139 59.4747 678.096 58.28C678.096 58.1947 678.107 58.1413 678.128 58.12C678.171 58.0987 678.224 58.1093 678.288 58.152ZM710.448 58.248L713.52 59.624C713.648 59.7307 713.659 59.8267 713.552 59.912L712.88 60.872L712.816 65.64L714.16 65.608L715.696 64.136L717.52 65.864C717.605 65.928 717.627 66.0027 717.584 66.088C717.541 66.152 717.467 66.1947 717.36 66.216L712.816 66.28L712.752 70.024C713.883 70.408 714.832 70.8133 715.6 71.24C716.453 71.7093 716.88 72.1147 716.88 72.456C716.965 72.7973 716.869 73.192 716.592 73.64C716.357 74.0453 716.069 74.3333 715.728 74.504C715.387 74.6747 715.141 74.728 714.992 74.664C714.843 74.6 714.715 74.3973 714.608 74.056C713.947 72.4133 713.328 71.2827 712.752 70.664L712.656 79.944L712.72 85.672C712.528 86.7387 711.888 87.8267 710.8 88.936C710.565 89.1493 710.363 89.256 710.192 89.256C710.085 89.2347 710.032 89.128 710.032 88.936L710.224 79.72L710.256 73.768C708.357 76.392 705.883 79.272 702.832 82.408C702.725 82.536 702.619 82.5573 702.512 82.472C702.405 82.3867 702.384 82.28 702.448 82.152C705.563 77.8427 708.176 72.8187 710.288 67.08V66.312H709.424C708.123 66.312 706.875 66.408 705.68 66.6L704.72 65.704L710.288 65.64L710.32 62.664C710.32 61 710.299 59.5707 710.256 58.376C710.256 58.2907 710.267 58.2373 710.288 58.216C710.331 58.1947 710.384 58.2053 710.448 58.248ZM721.232 58.44L723.696 59.656C723.824 59.7413 723.845 59.8693 723.76 60.04L723.312 60.712C722.459 62.2693 721.627 63.6667 720.816 64.904L727.92 64.744L729.264 63.144L732.112 64.968C732.261 65.0747 732.261 65.2027 732.112 65.352L731.056 66.664L730.8 76.744L730.864 80.84C730.757 82.6747 730.267 84.2533 729.392 85.576C728.603 86.7707 727.429 87.848 725.872 88.808C725.723 88.8933 725.605 88.9147 725.52 88.872C725.456 88.8293 725.424 88.744 725.424 88.616C725.488 87.9333 725.403 87.368 725.168 86.92C724.955 86.5147 724.592 86.152 724.08 85.832C723.973 85.768 723.931 85.6827 723.952 85.576C723.973 85.448 724.059 85.3947 724.208 85.416C725.701 85.3307 726.704 84.9893 727.216 84.392C727.728 83.7947 727.984 82.6213 727.984 80.872L728.24 65.48L720.304 65.672C719.088 67.4427 717.744 69.224 716.272 71.016C716.187 71.1013 716.112 71.1227 716.048 71.08C715.963 71.0373 715.941 70.952 715.984 70.824C717.349 68.52 718.459 66.312 719.312 64.2C719.995 62.536 720.635 60.616 721.232 58.44ZM723.312 74.76C723.269 74.6747 723.269 74.6107 723.312 74.568C723.355 74.5253 723.419 74.5147 723.504 74.536C724.528 75.5173 725.253 76.2533 725.68 76.744C726.384 77.576 726.789 78.2587 726.896 78.792C726.981 79.1973 726.843 79.6133 726.48 80.04C726.16 80.4027 725.776 80.6587 725.328 80.808C724.816 80.936 724.549 80.7013 724.528 80.104C724.485 79.4853 724.421 78.8027 724.336 78.056C720.795 79.4853 718.437 80.584 717.264 81.352C717.072 81.5227 716.923 81.512 716.816 81.32L715.664 79.048C716.56 78.984 717.157 78.7173 717.456 78.248C718.864 75.8587 720.112 72.552 721.2 68.328L723.664 69.992C723.813 70.12 723.803 70.2587 723.632 70.408L723.184 70.824C721.712 73.6187 720.091 76.2 718.32 78.568L724.24 77.64C724.069 76.7013 723.76 75.7413 723.312 74.76Z" fill="#553624"/>
<path d="M623.984 220.68L626.352 222.056C628.443 220.797 630.096 219.656 631.312 218.632C631.525 218.504 631.717 218.504 631.888 218.632L634.032 221.352C634.096 221.459 634.107 221.555 634.064 221.64C634.021 221.725 633.936 221.779 633.808 221.8C632.464 221.864 630.032 222.237 626.512 222.92L626.384 223.016V228.712L633.232 228.616L634.992 226.792L637.136 228.744C637.221 228.808 637.253 228.893 637.232 229C637.211 229.085 637.147 229.139 637.04 229.16L630.864 229.32L632.944 230.568C633.221 230.717 633.232 230.941 632.976 231.24L632.304 232.168L632.432 244.776C632.325 246.163 631.643 247.229 630.384 247.976C630.128 248.147 629.915 248.221 629.744 248.2C629.552 248.179 629.456 248.072 629.456 247.88L629.328 229.352L626.384 229.416C626.384 232.061 626.213 234.344 625.872 236.264C625.531 238.248 624.869 239.976 623.888 241.448C622.096 244.243 618.384 246.728 612.752 248.904C612.603 248.925 612.517 248.893 612.496 248.808C612.475 248.723 612.517 248.637 612.624 248.552C615.867 246.803 618.288 245.192 619.888 243.72C621.488 242.248 622.544 240.413 623.056 238.216C623.568 235.933 623.813 232.691 623.792 228.488V224.552C623.792 223.059 623.76 221.832 623.696 220.872C623.696 220.744 623.717 220.669 623.76 220.648C623.803 220.627 623.877 220.637 623.984 220.68ZM620.368 219.848C620.496 219.72 620.592 219.645 620.656 219.624C620.741 219.624 620.827 219.709 620.912 219.88L622.064 221.992C622.107 222.12 622.117 222.205 622.096 222.248C622.053 222.312 621.968 222.355 621.84 222.376C619.323 222.867 616.997 223.251 614.864 223.528V228.136L618.704 228.072L619.888 226.696L622.192 228.168C622.363 228.253 622.373 228.392 622.224 228.584L621.584 229.384L621.552 234.856L621.84 235.4C621.904 235.528 621.915 235.635 621.872 235.72C621.829 235.805 621.744 235.848 621.616 235.848C619.419 235.72 617.04 235.688 614.48 235.752C614.096 238.909 613.328 241.405 612.176 243.24C611.067 245.011 609.189 246.781 606.544 248.552C606.416 248.637 606.32 248.648 606.256 248.584C606.192 248.52 606.203 248.435 606.288 248.328C608.272 246.6 609.712 244.893 610.608 243.208C611.504 241.523 612.059 239.485 612.272 237.096C612.464 235.048 612.56 232.499 612.56 229.448V223.848C612.56 222.973 612.528 222.312 612.464 221.864C612.443 221.779 612.453 221.715 612.496 221.672C612.539 221.651 612.603 221.651 612.688 221.672L614.928 222.728C616.955 222.109 618.768 221.149 620.368 219.848ZM618.832 228.712L614.864 228.808V228.872C614.864 230.707 614.768 232.776 614.576 235.08L618.768 235.016L618.832 228.712ZM647.504 218.76L650.416 220.488C650.48 220.616 650.491 220.776 650.448 220.968C649.851 222.504 649.179 224.008 648.432 225.48L652.048 225.32L653.328 223.784L656.144 225.64C656.357 225.811 656.357 225.981 656.144 226.152L655.056 227.432C653.435 231.933 651.291 236.008 648.624 239.656C648.709 239.805 648.859 240.029 649.072 240.328C649.904 241.565 651.227 242.44 653.04 242.952C655.365 243.613 660.539 243.795 668.56 243.496C668.752 243.475 668.859 243.528 668.88 243.656C668.901 243.763 668.837 243.869 668.688 243.976C667.877 244.125 667.205 244.477 666.672 245.032C666.096 245.629 665.531 246.6 664.976 247.944C661.456 247.965 657.883 247.72 654.256 247.208C652.699 246.931 651.536 246.515 650.768 245.96C650.021 245.427 649.285 244.477 648.56 243.112C648.261 242.6 647.931 241.907 647.568 241.032C645.307 243.891 642.555 246.653 639.312 249.32C639.184 249.384 639.088 249.363 639.024 249.256C638.96 249.149 638.971 249.043 639.056 248.936C642.192 245.949 644.773 242.632 646.8 238.984C646.117 236.915 645.531 234.845 645.04 232.776L645.424 232.616C646.149 234.707 646.843 236.392 647.504 237.672C649.083 234.621 650.597 230.749 652.048 226.056L648.016 226.216C645.904 230.269 643.493 233.875 640.784 237.032C640.677 237.117 640.581 237.128 640.496 237.064C640.389 236.979 640.357 236.851 640.4 236.68C643.643 231.965 645.904 226.088 647.184 219.048C647.184 218.899 647.205 218.803 647.248 218.76C647.312 218.717 647.397 218.717 647.504 218.76ZM660.816 219.784L660.656 221.256L660.624 234.92L660.688 238.6C660.603 239.389 660.24 240.2 659.6 241.032C658.939 241.885 658.448 242.344 658.128 242.408C657.979 242.408 657.872 242.365 657.808 242.28C657.723 242.173 657.669 241.992 657.648 241.736L657.712 236.456L657.904 222.12C657.776 220.179 657.659 218.845 657.552 218.12L660.688 219.4C660.773 219.464 660.816 219.592 660.816 219.784ZM661.84 225.672C663.739 226.589 665.115 227.315 665.968 227.848C667.056 228.531 667.685 229.149 667.856 229.704C667.835 230.92 667.387 231.923 666.512 232.712C666.213 232.968 665.925 233.032 665.648 232.904C665.392 232.797 665.211 232.541 665.104 232.136C664.656 230.472 664.197 229.235 663.728 228.424C663.301 227.677 662.608 226.856 661.648 225.96C661.605 225.917 661.605 225.853 661.648 225.768C661.691 225.683 661.755 225.651 661.84 225.672ZM676.848 224.36C675.824 224.36 674.565 224.467 673.072 224.68L672.08 223.624L684.304 223.528L684.368 218.216L687.92 219.176C688.048 219.219 688.112 219.272 688.112 219.336C688.112 219.421 688.069 219.56 687.984 219.752L687.6 220.552L687.504 223.496L695.856 223.432L697.776 221.288L700.208 223.624C700.293 223.709 700.325 223.784 700.304 223.848C700.283 223.933 700.229 223.976 700.144 223.976L684.784 224.232L687.568 225.288C687.76 225.352 687.803 225.512 687.696 225.768L687.504 227.24V229.736L693.008 229.608L694.288 228.104L696.976 229.736C697.147 229.821 697.157 229.949 697.008 230.12L696.208 231.144L696.24 236.584L696.368 239.656C696.347 240.531 695.973 241.363 695.248 242.152C694.629 242.813 693.765 243.411 692.656 243.944C692.507 243.987 692.421 243.923 692.4 243.752C692.421 242.664 692.016 241.907 691.184 241.48C691.077 241.416 691.024 241.341 691.024 241.256C691.045 241.171 691.109 241.128 691.216 241.128C691.963 241.149 692.464 241.107 692.72 241C692.933 240.915 693.061 240.744 693.104 240.488L692.944 230.312L687.504 230.408L687.472 240.424L687.568 244.456C687.589 245.267 687.259 246.163 686.576 247.144C685.979 248.019 685.435 248.563 684.944 248.776C684.773 248.861 684.624 248.851 684.496 248.744C684.347 248.616 684.283 248.403 684.304 248.104L684.4 240.776L684.464 230.472L679.312 230.568L679.28 240.328C679.152 241.245 678.48 242.312 677.264 243.528C676.987 243.784 676.763 243.869 676.592 243.784C676.443 243.699 676.368 243.507 676.368 243.208L676.496 239.048L676.56 231.816L676.464 228.488C676.464 228.381 676.485 228.317 676.528 228.296C676.571 228.275 676.635 228.285 676.72 228.328L679.504 229.896L684.432 229.8L684.304 224.232L676.848 224.36ZM707.664 219.752L711.216 221.544L711.248 221.576L725.52 221.384L727.376 219.592L729.648 221.64C729.733 221.725 729.765 221.8 729.744 221.864C729.723 221.928 729.659 221.971 729.552 221.992L710.896 222.344L710.576 222.824L710.288 244.84L726.768 244.712L728.816 242.536L731.344 244.936C731.408 245 731.429 245.064 731.408 245.128C731.408 245.192 731.365 245.235 731.28 245.256L710.256 245.544C709.829 246.653 709.125 247.581 708.144 248.328C707.717 248.435 707.44 248.36 707.312 248.104L707.568 239.88L707.664 224.36C707.664 222.931 707.611 221.437 707.504 219.88C707.504 219.795 707.515 219.741 707.536 219.72C707.579 219.699 707.621 219.709 707.664 219.752ZM723.152 222.664L726.16 224.648C726.331 224.755 726.309 224.947 726.096 225.224L725.552 226.024C724.549 228.264 723.301 230.483 721.808 232.68C724.133 234.621 725.872 236.243 727.024 237.544C727.344 237.821 727.376 238.344 727.12 239.112C726.672 240.179 726.085 240.979 725.36 241.512C724.955 241.704 724.613 241.512 724.336 240.936C723.44 239.251 722.075 237.203 720.24 234.792C717.787 237.971 714.779 240.968 711.216 243.784C711.045 243.912 710.928 243.923 710.864 243.816C710.8 243.709 710.832 243.56 710.96 243.368C713.861 241 716.507 237.565 718.896 233.064C716.741 230.376 714.757 228.104 712.944 226.248C712.795 226.056 712.752 225.917 712.816 225.832C712.88 225.747 713.029 225.757 713.264 225.864C717.317 229.021 719.536 230.76 719.92 231.08C721.307 228.2 722.384 225.395 723.152 222.664ZM742.544 222.6C741.072 222.728 739.952 222.856 739.184 222.984L738.032 221.8L760.112 221.448L762.064 219.432L764.336 221.8C764.4 221.864 764.432 221.928 764.432 221.992C764.411 222.099 764.336 222.163 764.208 222.184L754.192 222.376L755.952 223.976C756.08 224.168 755.931 224.403 755.504 224.68C755.056 225.277 754.363 226.173 753.424 227.368L753.456 244.712C753.456 245.437 753.083 246.237 752.336 247.112C751.696 247.859 751.227 248.253 750.928 248.296C750.523 248.36 750.288 248.168 750.224 247.72L750.32 242.44L750.448 230.824C745.733 235.944 740.496 240.125 734.736 243.368C734.565 243.475 734.437 243.464 734.352 243.336C734.288 243.208 734.32 243.08 734.448 242.952C737.648 240.883 740.496 238.557 742.992 235.976C745.573 233.309 747.888 230.237 749.936 226.76C749.787 226.205 749.701 225.885 749.68 225.8C749.637 225.693 749.659 225.597 749.744 225.512C749.829 225.427 749.947 225.405 750.096 225.448L750.544 225.704C751.227 224.424 751.792 223.325 752.24 222.408L742.544 222.6ZM757.04 231.016C760.709 232.552 763.12 234.355 764.272 236.424C764.613 237.021 764.656 237.715 764.4 238.504C764.144 239.272 763.739 239.795 763.184 240.072C762.245 240.328 761.68 240.061 761.488 239.272C761.104 237.587 760.528 236.115 759.76 234.856C759.077 233.725 758.107 232.541 756.848 231.304C756.805 231.261 756.805 231.197 756.848 231.112C756.891 231.027 756.955 230.995 757.04 231.016ZM781.936 225.416C780.656 225.437 779.525 225.565 778.544 225.8L777.584 224.776L782.672 224.68L782.608 221.544C782.587 220.456 782.544 219.773 782.48 219.496C782.459 219.389 782.469 219.315 782.512 219.272C782.555 219.229 782.64 219.24 782.768 219.304L785.04 220.296C785.189 220.381 785.264 220.52 785.264 220.712L785.136 224.648L788.016 224.584L790.48 218.28L793.488 219.784C793.637 219.848 793.648 219.976 793.52 220.168L792.72 220.744L789.84 224.552L792.144 224.488L793.616 222.824L795.728 224.744C795.813 224.787 795.835 224.851 795.792 224.936C795.749 225 795.675 225.043 795.568 225.064L786.128 225.32L787.728 225.8C787.941 225.864 787.984 226.045 787.856 226.344L787.632 226.856L787.6 230.504L790.832 230.408L792.432 228.744L794.352 230.568C794.459 230.653 794.501 230.739 794.48 230.824C794.459 230.909 794.384 230.963 794.256 230.984L787.6 231.208L787.536 236.584L793.104 236.456L794.928 234.536L797.072 236.616C797.157 236.701 797.179 236.787 797.136 236.872C797.093 236.957 797.019 237.011 796.912 237.032L787.536 237.256V239.72L787.664 245.352C787.536 246.419 786.896 247.453 785.744 248.456C785.552 248.627 785.381 248.733 785.232 248.776C784.955 248.861 784.805 248.733 784.784 248.392L784.88 240.84L784.912 237.32L781.328 237.416C779.877 237.501 778.747 237.64 777.936 237.832L776.976 236.776L784.912 236.616L784.976 231.304L783.28 231.368C781.872 231.432 780.741 231.56 779.888 231.752L778.928 230.76L784.976 230.6L785.008 229.128L784.816 225.352L781.936 225.416ZM779.728 238.024C779.792 237.96 779.856 237.96 779.92 238.024C779.984 238.088 779.984 238.163 779.92 238.248L775.344 244.392C774.576 245.395 773.808 246.397 773.04 247.4C772.955 247.528 772.891 247.603 772.848 247.624C772.805 247.645 772.731 247.624 772.624 247.56L770.448 245.32C770.363 245.256 770.309 245.192 770.288 245.128C770.267 245.043 770.299 244.968 770.384 244.904C770.875 244.691 771.824 244.061 773.232 243.016L773.136 228.936L770.96 229.032C769.637 229.096 768.763 229.181 768.336 229.288L767.216 228.328L772.88 228.168L774.192 226.536L776.656 227.976C776.784 228.061 776.784 228.168 776.656 228.296L775.984 229.352L775.312 241.448L779.728 238.024ZM771.472 218.952C774.075 219.891 775.483 220.744 775.696 221.512C775.824 221.96 775.728 222.461 775.408 223.016C775.109 223.528 774.747 223.923 774.32 224.2C773.701 224.435 773.296 224.317 773.104 223.848C772.869 222.568 772.624 221.608 772.368 220.968C772.112 220.349 771.728 219.763 771.216 219.208C771.195 219.123 771.205 219.048 771.248 218.984C771.291 218.92 771.365 218.909 771.472 218.952Z" fill="#553624"/>
<path d="M76 89.4375L217.5 89.4375L347.999 118.436" stroke="#AD9278"/>
<path d="M320 164.262L343 164.263L350.5 164.263" stroke="#AD9278"/>
<path d="M141.5 242.938L277.5 242.937L380 200.5" stroke="#AD9278"/>
<defs>
<clipPath id="clip0_0_1">
<rect width="160" height="20" fill="white" transform="translate(7 305.938)"/>
</clipPath>
<clipPath id="clip1_0_1">
<rect width="160" height="20" fill="white" transform="translate(477 305.938)"/>
</clipPath>
</defs>
</svg>
